<svg xmlns="http://www.w3.org/2000/svg" version="1.1" xmlns:xlink="http://www.w3.org/1999/xlink"
    xmlns:svgjs="http://svgjs.dev/svgjs" viewBox="0 0 800 800" opacity="0.72" width="800"
    height="800">
    <g stroke-width="1" stroke="#9ca3afff" fill="none">
        <rect width="6.578947368421053" height="6.578947368421053" x="-3.2894736842105265"
            y="-3.2894736842105265" transform="rotate(45, 0, 0)"></rect>
        <rect width="6.578947368421053" height="6.578947368421053" x="41.154970760233915"
            y="-3.2894736842105265" transform="rotate(45, 44.44444444444444, 0)"></rect>
        <rect width="6.578947368421053" height="6.578947368421053" x="85.59941520467837"
            y="-3.2894736842105265" transform="rotate(45, 88.88888888888889, 0)"></rect>
        <rect width="6.578947368421053" height="6.578947368421053" x="130.0438596491228"
            y="-3.2894736842105265" transform="rotate(45, 133.33333333333331, 0)"></rect>
        <rect width="6.578947368421053" height="6.578947368421053" x="174.48830409356725"
            y="-3.2894736842105265" transform="rotate(45, 177.77777777777777, 0)"></rect>
        <rect width="6.578947368421053" height="6.578947368421053" x="218.9327485380117"
            y="-3.2894736842105265" transform="rotate(45, 222.22222222222223, 0)"></rect>
        <rect width="6.578947368421053" height="6.578947368421053" x="263.37719298245617"
            y="-3.2894736842105265" transform="rotate(45, 266.6666666666667, 0)"></rect>
        <rect width="6.578947368421053" height="6.578947368421053" x="307.8216374269006"
            y="-3.2894736842105265" transform="rotate(45, 311.11111111111114, 0)"></rect>
        <rect width="6.578947368421053" height="6.578947368421053" x="352.2660818713451"
            y="-3.2894736842105265" transform="rotate(45, 355.5555555555556, 0)"></rect>
        <rect width="6.578947368421053" height="6.578947368421053" x="396.71052631578954"
            y="-3.2894736842105265" transform="rotate(45, 400.00000000000006, 0)"></rect>
        <rect width="6.578947368421053" height="6.578947368421053" x="441.154970760234"
            y="-3.2894736842105265" transform="rotate(45, 444.4444444444445, 0)"></rect>
        <rect width="6.578947368421053" height="6.578947368421053" x="485.59941520467845"
            y="-3.2894736842105265" transform="rotate(45, 488.88888888888897, 0)"></rect>
        <rect width="6.578947368421053" height="6.578947368421053" x="530.0438596491229"
            y="-3.2894736842105265" transform="rotate(45, 533.3333333333334, 0)"></rect>
        <rect width="6.578947368421053" height="6.578947368421053" x="574.4883040935673"
            y="-3.2894736842105265" transform="rotate(45, 577.7777777777778, 0)"></rect>
        <rect width="6.578947368421053" height="6.578947368421053" x="618.9327485380118"
            y="-3.2894736842105265" transform="rotate(45, 622.2222222222223, 0)"></rect>
        <rect width="6.578947368421053" height="6.578947368421053" x="663.3771929824562"
            y="-3.2894736842105265" transform="rotate(45, 666.6666666666667, 0)"></rect>
        <rect width="6.578947368421053" height="6.578947368421053" x="707.8216374269007"
            y="-3.2894736842105265" transform="rotate(45, 711.1111111111112, 0)"></rect>
        <rect width="6.578947368421053" height="6.578947368421053" x="752.2660818713451"
            y="-3.2894736842105265" transform="rotate(45, 755.5555555555557, 0)"></rect>
        <rect width="6.578947368421053" height="6.578947368421053" x="796.7105263157896"
            y="-3.2894736842105265" transform="rotate(45, 800.0000000000001, 0)"></rect>
        <rect width="6.578947368421053" height="6.578947368421053" x="-3.2894736842105265"
            y="41.154970760233915" transform="rotate(45, 0, 44.44444444444444)"></rect>
        <rect width="6.578947368421053" height="6.578947368421053" x="41.154970760233915"
            y="41.154970760233915" fill="#9ca3afff" stroke="none"
            transform="rotate(45, 44.44444444444444, 44.44444444444444)"></rect>
        <rect width="6.578947368421053" height="6.578947368421053" x="85.59941520467837"
            y="41.154970760233915" transform="rotate(45, 88.88888888888889, 44.44444444444444)"></rect>
        <rect width="6.578947368421053" height="6.578947368421053" x="130.0438596491228"
            y="41.154970760233915" transform="rotate(45, 133.33333333333331, 44.44444444444444)"></rect>
        <rect width="6.578947368421053" height="6.578947368421053" x="174.48830409356725"
            y="41.154970760233915" fill="#9ca3afff" stroke="none"
            transform="rotate(45, 177.77777777777777, 44.44444444444444)"></rect>
        <rect width="6.578947368421053" height="6.578947368421053" x="218.9327485380117"
            y="41.154970760233915" transform="rotate(45, 222.22222222222223, 44.44444444444444)"></rect>
        <rect width="6.578947368421053" height="6.578947368421053" x="263.37719298245617"
            y="41.154970760233915" transform="rotate(45, 266.6666666666667, 44.44444444444444)"></rect>
        <rect width="6.578947368421053" height="6.578947368421053" x="307.8216374269006"
            y="41.154970760233915" transform="rotate(45, 311.11111111111114, 44.44444444444444)"></rect>
        <rect width="6.578947368421053" height="6.578947368421053" x="352.2660818713451"
            y="41.154970760233915" transform="rotate(45, 355.5555555555556, 44.44444444444444)"></rect>
        <rect width="6.578947368421053" height="6.578947368421053" x="396.71052631578954"
            y="41.154970760233915" transform="rotate(45, 400.00000000000006, 44.44444444444444)"></rect>
        <rect width="6.578947368421053" height="6.578947368421053" x="441.154970760234"
            y="41.154970760233915" transform="rotate(45, 444.4444444444445, 44.44444444444444)"></rect>
        <rect width="6.578947368421053" height="6.578947368421053" x="485.59941520467845"
            y="41.154970760233915" transform="rotate(45, 488.88888888888897, 44.44444444444444)"></rect>
        <rect width="6.578947368421053" height="6.578947368421053" x="530.0438596491229"
            y="41.154970760233915" transform="rotate(45, 533.3333333333334, 44.44444444444444)"></rect>
        <rect width="6.578947368421053" height="6.578947368421053" x="574.4883040935673"
            y="41.154970760233915" transform="rotate(45, 577.7777777777778, 44.44444444444444)"></rect>
        <rect width="6.578947368421053" height="6.578947368421053" x="618.9327485380118"
            y="41.154970760233915" transform="rotate(45, 622.2222222222223, 44.44444444444444)"></rect>
        <rect width="6.578947368421053" height="6.578947368421053" x="663.3771929824562"
            y="41.154970760233915" transform="rotate(45, 666.6666666666667, 44.44444444444444)"></rect>
        <rect width="6.578947368421053" height="6.578947368421053" x="707.8216374269007"
            y="41.154970760233915" fill="#9ca3afff" stroke="none"
            transform="rotate(45, 711.1111111111112, 44.44444444444444)"></rect>
        <rect width="6.578947368421053" height="6.578947368421053" x="752.2660818713451"
            y="41.154970760233915" transform="rotate(45, 755.5555555555557, 44.44444444444444)"></rect>
        <rect width="6.578947368421053" height="6.578947368421053" x="796.7105263157896"
            y="41.154970760233915" transform="rotate(45, 800.0000000000001, 44.44444444444444)"></rect>
        <rect width="6.578947368421053" height="6.578947368421053" x="-3.2894736842105265"
            y="85.59941520467837" transform="rotate(45, 0, 88.88888888888889)"></rect>
        <rect width="6.578947368421053" height="6.578947368421053" x="41.154970760233915"
            y="85.59941520467837" transform="rotate(45, 44.44444444444444, 88.88888888888889)"></rect>
        <rect width="6.578947368421053" height="6.578947368421053" x="85.59941520467837"
            y="85.59941520467837" transform="rotate(45, 88.88888888888889, 88.88888888888889)"></rect>
        <rect width="6.578947368421053" height="6.578947368421053" x="130.0438596491228"
            y="85.59941520467837" transform="rotate(45, 133.33333333333331, 88.88888888888889)"></rect>
        <rect width="6.578947368421053" height="6.578947368421053" x="174.48830409356725"
            y="85.59941520467837" fill="#9ca3afff" stroke="none"
            transform="rotate(45, 177.77777777777777, 88.88888888888889)"></rect>
        <rect width="6.578947368421053" height="6.578947368421053" x="218.9327485380117"
            y="85.59941520467837" transform="rotate(45, 222.22222222222223, 88.88888888888889)"></rect>
        <rect width="6.578947368421053" height="6.578947368421053" x="263.37719298245617"
            y="85.59941520467837" transform="rotate(45, 266.6666666666667, 88.88888888888889)"></rect>
        <rect width="6.578947368421053" height="6.578947368421053" x="307.8216374269006"
            y="85.59941520467837" fill="#9ca3afff" stroke="none"
            transform="rotate(45, 311.11111111111114, 88.88888888888889)"></rect>
        <rect width="6.578947368421053" height="6.578947368421053" x="352.2660818713451"
            y="85.59941520467837" fill="#9ca3afff" stroke="none"
            transform="rotate(45, 355.5555555555556, 88.88888888888889)"></rect>
        <rect width="6.578947368421053" height="6.578947368421053" x="396.71052631578954"
            y="85.59941520467837" transform="rotate(45, 400.00000000000006, 88.88888888888889)"></rect>
        <rect width="6.578947368421053" height="6.578947368421053" x="441.154970760234"
            y="85.59941520467837" fill="#9ca3afff" stroke="none"
            transform="rotate(45, 444.4444444444445, 88.88888888888889)"></rect>
        <rect width="6.578947368421053" height="6.578947368421053" x="485.59941520467845"
            y="85.59941520467837" transform="rotate(45, 488.88888888888897, 88.88888888888889)"></rect>
        <rect width="6.578947368421053" height="6.578947368421053" x="530.0438596491229"
            y="85.59941520467837" transform="rotate(45, 533.3333333333334, 88.88888888888889)"></rect>
        <rect width="6.578947368421053" height="6.578947368421053" x="574.4883040935673"
            y="85.59941520467837" transform="rotate(45, 577.7777777777778, 88.88888888888889)"></rect>
        <rect width="6.578947368421053" height="6.578947368421053" x="618.9327485380118"
            y="85.59941520467837" transform="rotate(45, 622.2222222222223, 88.88888888888889)"></rect>
        <rect width="6.578947368421053" height="6.578947368421053" x="663.3771929824562"
            y="85.59941520467837" transform="rotate(45, 666.6666666666667, 88.88888888888889)"></rect>
        <rect width="6.578947368421053" height="6.578947368421053" x="707.8216374269007"
            y="85.59941520467837" transform="rotate(45, 711.1111111111112, 88.88888888888889)"></rect>
        <rect width="6.578947368421053" height="6.578947368421053" x="752.2660818713451"
            y="85.59941520467837" transform="rotate(45, 755.5555555555557, 88.88888888888889)"></rect>
        <rect width="6.578947368421053" height="6.578947368421053" x="796.7105263157896"
            y="85.59941520467837" transform="rotate(45, 800.0000000000001, 88.88888888888889)"></rect>
        <rect width="6.578947368421053" height="6.578947368421053" x="-3.2894736842105265"
            y="130.0438596491228" transform="rotate(45, 0, 133.33333333333331)"></rect>
        <rect width="6.578947368421053" height="6.578947368421053" x="41.154970760233915"
            y="130.0438596491228" fill="#9ca3afff" stroke="none"
            transform="rotate(45, 44.44444444444444, 133.33333333333331)"></rect>
        <rect width="6.578947368421053" height="6.578947368421053" x="85.59941520467837"
            y="130.0438596491228" fill="#9ca3afff" stroke="none"
            transform="rotate(45, 88.88888888888889, 133.33333333333331)"></rect>
        <rect width="6.578947368421053" height="6.578947368421053" x="130.0438596491228"
            y="130.0438596491228" fill="#9ca3afff" stroke="none"
            transform="rotate(45, 133.33333333333331, 133.33333333333331)"></rect>
        <rect width="6.578947368421053" height="6.578947368421053" x="174.48830409356725"
            y="130.0438596491228" fill="#9ca3afff" stroke="none"
            transform="rotate(45, 177.77777777777777, 133.33333333333331)"></rect>
        <rect width="6.578947368421053" height="6.578947368421053" x="218.9327485380117"
            y="130.0438596491228" transform="rotate(45, 222.22222222222223, 133.33333333333331)"></rect>
        <rect width="6.578947368421053" height="6.578947368421053" x="263.37719298245617"
            y="130.0438596491228" transform="rotate(45, 266.6666666666667, 133.33333333333331)"></rect>
        <rect width="6.578947368421053" height="6.578947368421053" x="307.8216374269006"
            y="130.0438596491228" transform="rotate(45, 311.11111111111114, 133.33333333333331)"></rect>
        <rect width="6.578947368421053" height="6.578947368421053" x="352.2660818713451"
            y="130.0438596491228" transform="rotate(45, 355.5555555555556, 133.33333333333331)"></rect>
        <rect width="6.578947368421053" height="6.578947368421053" x="396.71052631578954"
            y="130.0438596491228" transform="rotate(45, 400.00000000000006, 133.33333333333331)"></rect>
        <rect width="6.578947368421053" height="6.578947368421053" x="441.154970760234"
            y="130.0438596491228" transform="rotate(45, 444.4444444444445, 133.33333333333331)"></rect>
        <rect width="6.578947368421053" height="6.578947368421053" x="485.59941520467845"
            y="130.0438596491228" transform="rotate(45, 488.88888888888897, 133.33333333333331)"></rect>
        <rect width="6.578947368421053" height="6.578947368421053" x="530.0438596491229"
            y="130.0438596491228" transform="rotate(45, 533.3333333333334, 133.33333333333331)"></rect>
        <rect width="6.578947368421053" height="6.578947368421053" x="574.4883040935673"
            y="130.0438596491228" transform="rotate(45, 577.7777777777778, 133.33333333333331)"></rect>
        <rect width="6.578947368421053" height="6.578947368421053" x="618.9327485380118"
            y="130.0438596491228" fill="#9ca3afff" stroke="none"
            transform="rotate(45, 622.2222222222223, 133.33333333333331)"></rect>
        <rect width="6.578947368421053" height="6.578947368421053" x="663.3771929824562"
            y="130.0438596491228" transform="rotate(45, 666.6666666666667, 133.33333333333331)"></rect>
        <rect width="6.578947368421053" height="6.578947368421053" x="707.8216374269007"
            y="130.0438596491228" transform="rotate(45, 711.1111111111112, 133.33333333333331)"></rect>
        <rect width="6.578947368421053" height="6.578947368421053" x="752.2660818713451"
            y="130.0438596491228" fill="#9ca3afff" stroke="none"
            transform="rotate(45, 755.5555555555557, 133.33333333333331)"></rect>
        <rect width="6.578947368421053" height="6.578947368421053" x="796.7105263157896"
            y="130.0438596491228" transform="rotate(45, 800.0000000000001, 133.33333333333331)"></rect>
        <rect width="6.578947368421053" height="6.578947368421053" x="-3.2894736842105265"
            y="174.48830409356725" transform="rotate(45, 0, 177.77777777777777)"></rect>
        <rect width="6.578947368421053" height="6.578947368421053" x="41.154970760233915"
            y="174.48830409356725" transform="rotate(45, 44.44444444444444, 177.77777777777777)"></rect>
        <rect width="6.578947368421053" height="6.578947368421053" x="85.59941520467837"
            y="174.48830409356725" transform="rotate(45, 88.88888888888889, 177.77777777777777)"></rect>
        <rect width="6.578947368421053" height="6.578947368421053" x="130.0438596491228"
            y="174.48830409356725" fill="#9ca3afff" stroke="none"
            transform="rotate(45, 133.33333333333331, 177.77777777777777)"></rect>
        <rect width="6.578947368421053" height="6.578947368421053" x="174.48830409356725"
            y="174.48830409356725" fill="#9ca3afff" stroke="none"
            transform="rotate(45, 177.77777777777777, 177.77777777777777)"></rect>
        <rect width="6.578947368421053" height="6.578947368421053" x="218.9327485380117"
            y="174.48830409356725" transform="rotate(45, 222.22222222222223, 177.77777777777777)"></rect>
        <rect width="6.578947368421053" height="6.578947368421053" x="263.37719298245617"
            y="174.48830409356725" transform="rotate(45, 266.6666666666667, 177.77777777777777)"></rect>
        <rect width="6.578947368421053" height="6.578947368421053" x="307.8216374269006"
            y="174.48830409356725" transform="rotate(45, 311.11111111111114, 177.77777777777777)"></rect>
        <rect width="6.578947368421053" height="6.578947368421053" x="352.2660818713451"
            y="174.48830409356725" transform="rotate(45, 355.5555555555556, 177.77777777777777)"></rect>
        <rect width="6.578947368421053" height="6.578947368421053" x="396.71052631578954"
            y="174.48830409356725" transform="rotate(45, 400.00000000000006, 177.77777777777777)"></rect>
        <rect width="6.578947368421053" height="6.578947368421053" x="441.154970760234"
            y="174.48830409356725" transform="rotate(45, 444.4444444444445, 177.77777777777777)"></rect>
        <rect width="6.578947368421053" height="6.578947368421053" x="485.59941520467845"
            y="174.48830409356725" transform="rotate(45, 488.88888888888897, 177.77777777777777)"></rect>
        <rect width="6.578947368421053" height="6.578947368421053" x="530.0438596491229"
            y="174.48830409356725" transform="rotate(45, 533.3333333333334, 177.77777777777777)"></rect>
        <rect width="6.578947368421053" height="6.578947368421053" x="574.4883040935673"
            y="174.48830409356725" transform="rotate(45, 577.7777777777778, 177.77777777777777)"></rect>
        <rect width="6.578947368421053" height="6.578947368421053" x="618.9327485380118"
            y="174.48830409356725" transform="rotate(45, 622.2222222222223, 177.77777777777777)"></rect>
        <rect width="6.578947368421053" height="6.578947368421053" x="663.3771929824562"
            y="174.48830409356725" transform="rotate(45, 666.6666666666667, 177.77777777777777)"></rect>
        <rect width="6.578947368421053" height="6.578947368421053" x="707.8216374269007"
            y="174.48830409356725" fill="#9ca3afff" stroke="none"
            transform="rotate(45, 711.1111111111112, 177.77777777777777)"></rect>
        <rect width="6.578947368421053" height="6.578947368421053" x="752.2660818713451"
            y="174.48830409356725" transform="rotate(45, 755.5555555555557, 177.77777777777777)"></rect>
        <rect width="6.578947368421053" height="6.578947368421053" x="796.7105263157896"
            y="174.48830409356725" transform="rotate(45, 800.0000000000001, 177.77777777777777)"></rect>
        <rect width="6.578947368421053" height="6.578947368421053" x="-3.2894736842105265"
            y="218.9327485380117" transform="rotate(45, 0, 222.22222222222223)"></rect>
        <rect width="6.578947368421053" height="6.578947368421053" x="41.154970760233915"
            y="218.9327485380117" transform="rotate(45, 44.44444444444444, 222.22222222222223)"></rect>
        <rect width="6.578947368421053" height="6.578947368421053" x="85.59941520467837"
            y="218.9327485380117" fill="#9ca3afff" stroke="none"
            transform="rotate(45, 88.88888888888889, 222.22222222222223)"></rect>
        <rect width="6.578947368421053" height="6.578947368421053" x="130.0438596491228"
            y="218.9327485380117" transform="rotate(45, 133.33333333333331, 222.22222222222223)"></rect>
        <rect width="6.578947368421053" height="6.578947368421053" x="174.48830409356725"
            y="218.9327485380117" transform="rotate(45, 177.77777777777777, 222.22222222222223)"></rect>
        <rect width="6.578947368421053" height="6.578947368421053" x="218.9327485380117"
            y="218.9327485380117" transform="rotate(45, 222.22222222222223, 222.22222222222223)"></rect>
        <rect width="6.578947368421053" height="6.578947368421053" x="263.37719298245617"
            y="218.9327485380117" transform="rotate(45, 266.6666666666667, 222.22222222222223)"></rect>
        <rect width="6.578947368421053" height="6.578947368421053" x="307.8216374269006"
            y="218.9327485380117" transform="rotate(45, 311.11111111111114, 222.22222222222223)"></rect>
        <rect width="6.578947368421053" height="6.578947368421053" x="352.2660818713451"
            y="218.9327485380117" transform="rotate(45, 355.5555555555556, 222.22222222222223)"></rect>
        <rect width="6.578947368421053" height="6.578947368421053" x="396.71052631578954"
            y="218.9327485380117" transform="rotate(45, 400.00000000000006, 222.22222222222223)"></rect>
        <rect width="6.578947368421053" height="6.578947368421053" x="441.154970760234"
            y="218.9327485380117" transform="rotate(45, 444.4444444444445, 222.22222222222223)"></rect>
        <rect width="6.578947368421053" height="6.578947368421053" x="485.59941520467845"
            y="218.9327485380117" transform="rotate(45, 488.88888888888897, 222.22222222222223)"></rect>
        <rect width="6.578947368421053" height="6.578947368421053" x="530.0438596491229"
            y="218.9327485380117" fill="#9ca3afff" stroke="none"
            transform="rotate(45, 533.3333333333334, 222.22222222222223)"></rect>
        <rect width="6.578947368421053" height="6.578947368421053" x="574.4883040935673"
            y="218.9327485380117" transform="rotate(45, 577.7777777777778, 222.22222222222223)"></rect>
        <rect width="6.578947368421053" height="6.578947368421053" x="618.9327485380118"
            y="218.9327485380117" fill="#9ca3afff" stroke="none"
            transform="rotate(45, 622.2222222222223, 222.22222222222223)"></rect>
        <rect width="6.578947368421053" height="6.578947368421053" x="663.3771929824562"
            y="218.9327485380117" transform="rotate(45, 666.6666666666667, 222.22222222222223)"></rect>
        <rect width="6.578947368421053" height="6.578947368421053" x="707.8216374269007"
            y="218.9327485380117" fill="#9ca3afff" stroke="none"
            transform="rotate(45, 711.1111111111112, 222.22222222222223)"></rect>
        <rect width="6.578947368421053" height="6.578947368421053" x="752.2660818713451"
            y="218.9327485380117" fill="#9ca3afff" stroke="none"
            transform="rotate(45, 755.5555555555557, 222.22222222222223)"></rect>
        <rect width="6.578947368421053" height="6.578947368421053" x="796.7105263157896"
            y="218.9327485380117" transform="rotate(45, 800.0000000000001, 222.22222222222223)"></rect>
        <rect width="6.578947368421053" height="6.578947368421053" x="-3.2894736842105265"
            y="263.37719298245617" transform="rotate(45, 0, 266.6666666666667)"></rect>
        <rect width="6.578947368421053" height="6.578947368421053" x="41.154970760233915"
            y="263.37719298245617" transform="rotate(45, 44.44444444444444, 266.6666666666667)"></rect>
        <rect width="6.578947368421053" height="6.578947368421053" x="85.59941520467837"
            y="263.37719298245617" transform="rotate(45, 88.88888888888889, 266.6666666666667)"></rect>
        <rect width="6.578947368421053" height="6.578947368421053" x="130.0438596491228"
            y="263.37719298245617" transform="rotate(45, 133.33333333333331, 266.6666666666667)"></rect>
        <rect width="6.578947368421053" height="6.578947368421053" x="174.48830409356725"
            y="263.37719298245617" transform="rotate(45, 177.77777777777777, 266.6666666666667)"></rect>
        <rect width="6.578947368421053" height="6.578947368421053" x="218.9327485380117"
            y="263.37719298245617" transform="rotate(45, 222.22222222222223, 266.6666666666667)"></rect>
        <rect width="6.578947368421053" height="6.578947368421053" x="263.37719298245617"
            y="263.37719298245617" transform="rotate(45, 266.6666666666667, 266.6666666666667)"></rect>
        <rect width="6.578947368421053" height="6.578947368421053" x="307.8216374269006"
            y="263.37719298245617" transform="rotate(45, 311.11111111111114, 266.6666666666667)"></rect>
        <rect width="6.578947368421053" height="6.578947368421053" x="352.2660818713451"
            y="263.37719298245617" transform="rotate(45, 355.5555555555556, 266.6666666666667)"></rect>
        <rect width="6.578947368421053" height="6.578947368421053" x="396.71052631578954"
            y="263.37719298245617" transform="rotate(45, 400.00000000000006, 266.6666666666667)"></rect>
        <rect width="6.578947368421053" height="6.578947368421053" x="441.154970760234"
            y="263.37719298245617" transform="rotate(45, 444.4444444444445, 266.6666666666667)"></rect>
        <rect width="6.578947368421053" height="6.578947368421053" x="485.59941520467845"
            y="263.37719298245617" transform="rotate(45, 488.88888888888897, 266.6666666666667)"></rect>
        <rect width="6.578947368421053" height="6.578947368421053" x="530.0438596491229"
            y="263.37719298245617" fill="#9ca3afff" stroke="none"
            transform="rotate(45, 533.3333333333334, 266.6666666666667)"></rect>
        <rect width="6.578947368421053" height="6.578947368421053" x="574.4883040935673"
            y="263.37719298245617" transform="rotate(45, 577.7777777777778, 266.6666666666667)"></rect>
        <rect width="6.578947368421053" height="6.578947368421053" x="618.9327485380118"
            y="263.37719298245617" transform="rotate(45, 622.2222222222223, 266.6666666666667)"></rect>
        <rect width="6.578947368421053" height="6.578947368421053" x="663.3771929824562"
            y="263.37719298245617" transform="rotate(45, 666.6666666666667, 266.6666666666667)"></rect>
        <rect width="6.578947368421053" height="6.578947368421053" x="707.8216374269007"
            y="263.37719298245617" transform="rotate(45, 711.1111111111112, 266.6666666666667)"></rect>
        <rect width="6.578947368421053" height="6.578947368421053" x="752.2660818713451"
            y="263.37719298245617" transform="rotate(45, 755.5555555555557, 266.6666666666667)"></rect>
        <rect width="6.578947368421053" height="6.578947368421053" x="796.7105263157896"
            y="263.37719298245617" transform="rotate(45, 800.0000000000001, 266.6666666666667)"></rect>
        <rect width="6.578947368421053" height="6.578947368421053" x="-3.2894736842105265"
            y="307.8216374269006" transform="rotate(45, 0, 311.11111111111114)"></rect>
        <rect width="6.578947368421053" height="6.578947368421053" x="41.154970760233915"
            y="307.8216374269006" transform="rotate(45, 44.44444444444444, 311.11111111111114)"></rect>
        <rect width="6.578947368421053" height="6.578947368421053" x="85.59941520467837"
            y="307.8216374269006" transform="rotate(45, 88.88888888888889, 311.11111111111114)"></rect>
        <rect width="6.578947368421053" height="6.578947368421053" x="130.0438596491228"
            y="307.8216374269006" transform="rotate(45, 133.33333333333331, 311.11111111111114)"></rect>
        <rect width="6.578947368421053" height="6.578947368421053" x="174.48830409356725"
            y="307.8216374269006" transform="rotate(45, 177.77777777777777, 311.11111111111114)"></rect>
        <rect width="6.578947368421053" height="6.578947368421053" x="218.9327485380117"
            y="307.8216374269006" fill="#9ca3afff" stroke="none"
            transform="rotate(45, 222.22222222222223, 311.11111111111114)"></rect>
        <rect width="6.578947368421053" height="6.578947368421053" x="263.37719298245617"
            y="307.8216374269006" fill="#9ca3afff" stroke="none"
            transform="rotate(45, 266.6666666666667, 311.11111111111114)"></rect>
        <rect width="6.578947368421053" height="6.578947368421053" x="307.8216374269006"
            y="307.8216374269006" transform="rotate(45, 311.11111111111114, 311.11111111111114)"></rect>
        <rect width="6.578947368421053" height="6.578947368421053" x="352.2660818713451"
            y="307.8216374269006" transform="rotate(45, 355.5555555555556, 311.11111111111114)"></rect>
        <rect width="6.578947368421053" height="6.578947368421053" x="396.71052631578954"
            y="307.8216374269006" fill="#9ca3afff" stroke="none"
            transform="rotate(45, 400.00000000000006, 311.11111111111114)"></rect>
        <rect width="6.578947368421053" height="6.578947368421053" x="441.154970760234"
            y="307.8216374269006" transform="rotate(45, 444.4444444444445, 311.11111111111114)"></rect>
        <rect width="6.578947368421053" height="6.578947368421053" x="485.59941520467845"
            y="307.8216374269006" transform="rotate(45, 488.88888888888897, 311.11111111111114)"></rect>
        <rect width="6.578947368421053" height="6.578947368421053" x="530.0438596491229"
            y="307.8216374269006" transform="rotate(45, 533.3333333333334, 311.11111111111114)"></rect>
        <rect width="6.578947368421053" height="6.578947368421053" x="574.4883040935673"
            y="307.8216374269006" transform="rotate(45, 577.7777777777778, 311.11111111111114)"></rect>
        <rect width="6.578947368421053" height="6.578947368421053" x="618.9327485380118"
            y="307.8216374269006" fill="#9ca3afff" stroke="none"
            transform="rotate(45, 622.2222222222223, 311.11111111111114)"></rect>
        <rect width="6.578947368421053" height="6.578947368421053" x="663.3771929824562"
            y="307.8216374269006" transform="rotate(45, 666.6666666666667, 311.11111111111114)"></rect>
        <rect width="6.578947368421053" height="6.578947368421053" x="707.8216374269007"
            y="307.8216374269006" transform="rotate(45, 711.1111111111112, 311.11111111111114)"></rect>
        <rect width="6.578947368421053" height="6.578947368421053" x="752.2660818713451"
            y="307.8216374269006" transform="rotate(45, 755.5555555555557, 311.11111111111114)"></rect>
        <rect width="6.578947368421053" height="6.578947368421053" x="796.7105263157896"
            y="307.8216374269006" transform="rotate(45, 800.0000000000001, 311.11111111111114)"></rect>
        <rect width="6.578947368421053" height="6.578947368421053" x="-3.2894736842105265"
            y="352.2660818713451" transform="rotate(45, 0, 355.5555555555556)"></rect>
        <rect width="6.578947368421053" height="6.578947368421053" x="41.154970760233915"
            y="352.2660818713451" transform="rotate(45, 44.44444444444444, 355.5555555555556)"></rect>
        <rect width="6.578947368421053" height="6.578947368421053" x="85.59941520467837"
            y="352.2660818713451" fill="#9ca3afff" stroke="none"
            transform="rotate(45, 88.88888888888889, 355.5555555555556)"></rect>
        <rect width="6.578947368421053" height="6.578947368421053" x="130.0438596491228"
            y="352.2660818713451" transform="rotate(45, 133.33333333333331, 355.5555555555556)"></rect>
        <rect width="6.578947368421053" height="6.578947368421053" x="174.48830409356725"
            y="352.2660818713451" fill="#9ca3afff" stroke="none"
            transform="rotate(45, 177.77777777777777, 355.5555555555556)"></rect>
        <rect width="6.578947368421053" height="6.578947368421053" x="218.9327485380117"
            y="352.2660818713451" transform="rotate(45, 222.22222222222223, 355.5555555555556)"></rect>
        <rect width="6.578947368421053" height="6.578947368421053" x="263.37719298245617"
            y="352.2660818713451" transform="rotate(45, 266.6666666666667, 355.5555555555556)"></rect>
        <rect width="6.578947368421053" height="6.578947368421053" x="307.8216374269006"
            y="352.2660818713451" transform="rotate(45, 311.11111111111114, 355.5555555555556)"></rect>
        <rect width="6.578947368421053" height="6.578947368421053" x="352.2660818713451"
            y="352.2660818713451" transform="rotate(45, 355.5555555555556, 355.5555555555556)"></rect>
        <rect width="6.578947368421053" height="6.578947368421053" x="396.71052631578954"
            y="352.2660818713451" transform="rotate(45, 400.00000000000006, 355.5555555555556)"></rect>
        <rect width="6.578947368421053" height="6.578947368421053" x="441.154970760234"
            y="352.2660818713451" transform="rotate(45, 444.4444444444445, 355.5555555555556)"></rect>
        <rect width="6.578947368421053" height="6.578947368421053" x="485.59941520467845"
            y="352.2660818713451" transform="rotate(45, 488.88888888888897, 355.5555555555556)"></rect>
        <rect width="6.578947368421053" height="6.578947368421053" x="530.0438596491229"
            y="352.2660818713451" transform="rotate(45, 533.3333333333334, 355.5555555555556)"></rect>
        <rect width="6.578947368421053" height="6.578947368421053" x="574.4883040935673"
            y="352.2660818713451" transform="rotate(45, 577.7777777777778, 355.5555555555556)"></rect>
        <rect width="6.578947368421053" height="6.578947368421053" x="618.9327485380118"
            y="352.2660818713451" fill="#9ca3afff" stroke="none"
            transform="rotate(45, 622.2222222222223, 355.5555555555556)"></rect>
        <rect width="6.578947368421053" height="6.578947368421053" x="663.3771929824562"
            y="352.2660818713451" fill="#9ca3afff" stroke="none"
            transform="rotate(45, 666.6666666666667, 355.5555555555556)"></rect>
        <rect width="6.578947368421053" height="6.578947368421053" x="707.8216374269007"
            y="352.2660818713451" transform="rotate(45, 711.1111111111112, 355.5555555555556)"></rect>
        <rect width="6.578947368421053" height="6.578947368421053" x="752.2660818713451"
            y="352.2660818713451" transform="rotate(45, 755.5555555555557, 355.5555555555556)"></rect>
        <rect width="6.578947368421053" height="6.578947368421053" x="796.7105263157896"
            y="352.2660818713451" transform="rotate(45, 800.0000000000001, 355.5555555555556)"></rect>
        <rect width="6.578947368421053" height="6.578947368421053" x="-3.2894736842105265"
            y="396.71052631578954" transform="rotate(45, 0, 400.00000000000006)"></rect>
        <rect width="6.578947368421053" height="6.578947368421053" x="41.154970760233915"
            y="396.71052631578954" transform="rotate(45, 44.44444444444444, 400.00000000000006)"></rect>
        <rect width="6.578947368421053" height="6.578947368421053" x="85.59941520467837"
            y="396.71052631578954" transform="rotate(45, 88.88888888888889, 400.00000000000006)"></rect>
        <rect width="6.578947368421053" height="6.578947368421053" x="130.0438596491228"
            y="396.71052631578954" transform="rotate(45, 133.33333333333331, 400.00000000000006)"></rect>
        <rect width="6.578947368421053" height="6.578947368421053" x="174.48830409356725"
            y="396.71052631578954" transform="rotate(45, 177.77777777777777, 400.00000000000006)"></rect>
        <rect width="6.578947368421053" height="6.578947368421053" x="218.9327485380117"
            y="396.71052631578954" transform="rotate(45, 222.22222222222223, 400.00000000000006)"></rect>
        <rect width="6.578947368421053" height="6.578947368421053" x="263.37719298245617"
            y="396.71052631578954" transform="rotate(45, 266.6666666666667, 400.00000000000006)"></rect>
        <rect width="6.578947368421053" height="6.578947368421053" x="307.8216374269006"
            y="396.71052631578954" transform="rotate(45, 311.11111111111114, 400.00000000000006)"></rect>
        <rect width="6.578947368421053" height="6.578947368421053" x="352.2660818713451"
            y="396.71052631578954" transform="rotate(45, 355.5555555555556, 400.00000000000006)"></rect>
        <rect width="6.578947368421053" height="6.578947368421053" x="396.71052631578954"
            y="396.71052631578954" transform="rotate(45, 400.00000000000006, 400.00000000000006)"></rect>
        <rect width="6.578947368421053" height="6.578947368421053" x="441.154970760234"
            y="396.71052631578954" transform="rotate(45, 444.4444444444445, 400.00000000000006)"></rect>
        <rect width="6.578947368421053" height="6.578947368421053" x="485.59941520467845"
            y="396.71052631578954" transform="rotate(45, 488.88888888888897, 400.00000000000006)"></rect>
        <rect width="6.578947368421053" height="6.578947368421053" x="530.0438596491229"
            y="396.71052631578954" fill="#9ca3afff" stroke="none"
            transform="rotate(45, 533.3333333333334, 400.00000000000006)"></rect>
        <rect width="6.578947368421053" height="6.578947368421053" x="574.4883040935673"
            y="396.71052631578954" transform="rotate(45, 577.7777777777778, 400.00000000000006)"></rect>
        <rect width="6.578947368421053" height="6.578947368421053" x="618.9327485380118"
            y="396.71052631578954" transform="rotate(45, 622.2222222222223, 400.00000000000006)"></rect>
        <rect width="6.578947368421053" height="6.578947368421053" x="663.3771929824562"
            y="396.71052631578954" transform="rotate(45, 666.6666666666667, 400.00000000000006)"></rect>
        <rect width="6.578947368421053" height="6.578947368421053" x="707.8216374269007"
            y="396.71052631578954" transform="rotate(45, 711.1111111111112, 400.00000000000006)"></rect>
        <rect width="6.578947368421053" height="6.578947368421053" x="752.2660818713451"
            y="396.71052631578954" transform="rotate(45, 755.5555555555557, 400.00000000000006)"></rect>
        <rect width="6.578947368421053" height="6.578947368421053" x="796.7105263157896"
            y="396.71052631578954" transform="rotate(45, 800.0000000000001, 400.00000000000006)"></rect>
        <rect width="6.578947368421053" height="6.578947368421053" x="-3.2894736842105265"
            y="441.154970760234" transform="rotate(45, 0, 444.4444444444445)"></rect>
        <rect width="6.578947368421053" height="6.578947368421053" x="41.154970760233915"
            y="441.154970760234" transform="rotate(45, 44.44444444444444, 444.4444444444445)"></rect>
        <rect width="6.578947368421053" height="6.578947368421053" x="85.59941520467837"
            y="441.154970760234" fill="#9ca3afff" stroke="none"
            transform="rotate(45, 88.88888888888889, 444.4444444444445)"></rect>
        <rect width="6.578947368421053" height="6.578947368421053" x="130.0438596491228"
            y="441.154970760234" transform="rotate(45, 133.33333333333331, 444.4444444444445)"></rect>
        <rect width="6.578947368421053" height="6.578947368421053" x="174.48830409356725"
            y="441.154970760234" fill="#9ca3afff" stroke="none"
            transform="rotate(45, 177.77777777777777, 444.4444444444445)"></rect>
        <rect width="6.578947368421053" height="6.578947368421053" x="218.9327485380117"
            y="441.154970760234" transform="rotate(45, 222.22222222222223, 444.4444444444445)"></rect>
        <rect width="6.578947368421053" height="6.578947368421053" x="263.37719298245617"
            y="441.154970760234" fill="#9ca3afff" stroke="none"
            transform="rotate(45, 266.6666666666667, 444.4444444444445)"></rect>
        <rect width="6.578947368421053" height="6.578947368421053" x="307.8216374269006"
            y="441.154970760234" transform="rotate(45, 311.11111111111114, 444.4444444444445)"></rect>
        <rect width="6.578947368421053" height="6.578947368421053" x="352.2660818713451"
            y="441.154970760234" transform="rotate(45, 355.5555555555556, 444.4444444444445)"></rect>
        <rect width="6.578947368421053" height="6.578947368421053" x="396.71052631578954"
            y="441.154970760234" transform="rotate(45, 400.00000000000006, 444.4444444444445)"></rect>
        <rect width="6.578947368421053" height="6.578947368421053" x="441.154970760234"
            y="441.154970760234" transform="rotate(45, 444.4444444444445, 444.4444444444445)"></rect>
        <rect width="6.578947368421053" height="6.578947368421053" x="485.59941520467845"
            y="441.154970760234" transform="rotate(45, 488.88888888888897, 444.4444444444445)"></rect>
        <rect width="6.578947368421053" height="6.578947368421053" x="530.0438596491229"
            y="441.154970760234" fill="#9ca3afff" stroke="none"
            transform="rotate(45, 533.3333333333334, 444.4444444444445)"></rect>
        <rect width="6.578947368421053" height="6.578947368421053" x="574.4883040935673"
            y="441.154970760234" fill="#9ca3afff" stroke="none"
            transform="rotate(45, 577.7777777777778, 444.4444444444445)"></rect>
        <rect width="6.578947368421053" height="6.578947368421053" x="618.9327485380118"
            y="441.154970760234" transform="rotate(45, 622.2222222222223, 444.4444444444445)"></rect>
        <rect width="6.578947368421053" height="6.578947368421053" x="663.3771929824562"
            y="441.154970760234" fill="#9ca3afff" stroke="none"
            transform="rotate(45, 666.6666666666667, 444.4444444444445)"></rect>
        <rect width="6.578947368421053" height="6.578947368421053" x="707.8216374269007"
            y="441.154970760234" fill="#9ca3afff" stroke="none"
            transform="rotate(45, 711.1111111111112, 444.4444444444445)"></rect>
        <rect width="6.578947368421053" height="6.578947368421053" x="752.2660818713451"
            y="441.154970760234" transform="rotate(45, 755.5555555555557, 444.4444444444445)"></rect>
        <rect width="6.578947368421053" height="6.578947368421053" x="796.7105263157896"
            y="441.154970760234" transform="rotate(45, 800.0000000000001, 444.4444444444445)"></rect>
        <rect width="6.578947368421053" height="6.578947368421053" x="-3.2894736842105265"
            y="485.59941520467845" transform="rotate(45, 0, 488.88888888888897)"></rect>
        <rect width="6.578947368421053" height="6.578947368421053" x="41.154970760233915"
            y="485.59941520467845" transform="rotate(45, 44.44444444444444, 488.88888888888897)"></rect>
        <rect width="6.578947368421053" height="6.578947368421053" x="85.59941520467837"
            y="485.59941520467845" fill="#9ca3afff" stroke="none"
            transform="rotate(45, 88.88888888888889, 488.88888888888897)"></rect>
        <rect width="6.578947368421053" height="6.578947368421053" x="130.0438596491228"
            y="485.59941520467845" transform="rotate(45, 133.33333333333331, 488.88888888888897)"></rect>
        <rect width="6.578947368421053" height="6.578947368421053" x="174.48830409356725"
            y="485.59941520467845" transform="rotate(45, 177.77777777777777, 488.88888888888897)"></rect>
        <rect width="6.578947368421053" height="6.578947368421053" x="218.9327485380117"
            y="485.59941520467845" fill="#9ca3afff" stroke="none"
            transform="rotate(45, 222.22222222222223, 488.88888888888897)"></rect>
        <rect width="6.578947368421053" height="6.578947368421053" x="263.37719298245617"
            y="485.59941520467845" transform="rotate(45, 266.6666666666667, 488.88888888888897)"></rect>
        <rect width="6.578947368421053" height="6.578947368421053" x="307.8216374269006"
            y="485.59941520467845" transform="rotate(45, 311.11111111111114, 488.88888888888897)"></rect>
        <rect width="6.578947368421053" height="6.578947368421053" x="352.2660818713451"
            y="485.59941520467845" transform="rotate(45, 355.5555555555556, 488.88888888888897)"></rect>
        <rect width="6.578947368421053" height="6.578947368421053" x="396.71052631578954"
            y="485.59941520467845" transform="rotate(45, 400.00000000000006, 488.88888888888897)"></rect>
        <rect width="6.578947368421053" height="6.578947368421053" x="441.154970760234"
            y="485.59941520467845" transform="rotate(45, 444.4444444444445, 488.88888888888897)"></rect>
        <rect width="6.578947368421053" height="6.578947368421053" x="485.59941520467845"
            y="485.59941520467845" fill="#9ca3afff" stroke="none"
            transform="rotate(45, 488.88888888888897, 488.88888888888897)"></rect>
        <rect width="6.578947368421053" height="6.578947368421053" x="530.0438596491229"
            y="485.59941520467845" transform="rotate(45, 533.3333333333334, 488.88888888888897)"></rect>
        <rect width="6.578947368421053" height="6.578947368421053" x="574.4883040935673"
            y="485.59941520467845" transform="rotate(45, 577.7777777777778, 488.88888888888897)"></rect>
        <rect width="6.578947368421053" height="6.578947368421053" x="618.9327485380118"
            y="485.59941520467845" transform="rotate(45, 622.2222222222223, 488.88888888888897)"></rect>
        <rect width="6.578947368421053" height="6.578947368421053" x="663.3771929824562"
            y="485.59941520467845" transform="rotate(45, 666.6666666666667, 488.88888888888897)"></rect>
        <rect width="6.578947368421053" height="6.578947368421053" x="707.8216374269007"
            y="485.59941520467845" transform="rotate(45, 711.1111111111112, 488.88888888888897)"></rect>
        <rect width="6.578947368421053" height="6.578947368421053" x="752.2660818713451"
            y="485.59941520467845" transform="rotate(45, 755.5555555555557, 488.88888888888897)"></rect>
        <rect width="6.578947368421053" height="6.578947368421053" x="796.7105263157896"
            y="485.59941520467845" transform="rotate(45, 800.0000000000001, 488.88888888888897)"></rect>
        <rect width="6.578947368421053" height="6.578947368421053" x="-3.2894736842105265"
            y="530.0438596491229" transform="rotate(45, 0, 533.3333333333334)"></rect>
        <rect width="6.578947368421053" height="6.578947368421053" x="41.154970760233915"
            y="530.0438596491229" transform="rotate(45, 44.44444444444444, 533.3333333333334)"></rect>
        <rect width="6.578947368421053" height="6.578947368421053" x="85.59941520467837"
            y="530.0438596491229" transform="rotate(45, 88.88888888888889, 533.3333333333334)"></rect>
        <rect width="6.578947368421053" height="6.578947368421053" x="130.0438596491228"
            y="530.0438596491229" fill="#9ca3afff" stroke="none"
            transform="rotate(45, 133.33333333333331, 533.3333333333334)"></rect>
        <rect width="6.578947368421053" height="6.578947368421053" x="174.48830409356725"
            y="530.0438596491229" transform="rotate(45, 177.77777777777777, 533.3333333333334)"></rect>
        <rect width="6.578947368421053" height="6.578947368421053" x="218.9327485380117"
            y="530.0438596491229" transform="rotate(45, 222.22222222222223, 533.3333333333334)"></rect>
        <rect width="6.578947368421053" height="6.578947368421053" x="263.37719298245617"
            y="530.0438596491229" transform="rotate(45, 266.6666666666667, 533.3333333333334)"></rect>
        <rect width="6.578947368421053" height="6.578947368421053" x="307.8216374269006"
            y="530.0438596491229" fill="#9ca3afff" stroke="none"
            transform="rotate(45, 311.11111111111114, 533.3333333333334)"></rect>
        <rect width="6.578947368421053" height="6.578947368421053" x="352.2660818713451"
            y="530.0438596491229" fill="#9ca3afff" stroke="none"
            transform="rotate(45, 355.5555555555556, 533.3333333333334)"></rect>
        <rect width="6.578947368421053" height="6.578947368421053" x="396.71052631578954"
            y="530.0438596491229" transform="rotate(45, 400.00000000000006, 533.3333333333334)"></rect>
        <rect width="6.578947368421053" height="6.578947368421053" x="441.154970760234"
            y="530.0438596491229" fill="#9ca3afff" stroke="none"
            transform="rotate(45, 444.4444444444445, 533.3333333333334)"></rect>
        <rect width="6.578947368421053" height="6.578947368421053" x="485.59941520467845"
            y="530.0438596491229" fill="#9ca3afff" stroke="none"
            transform="rotate(45, 488.88888888888897, 533.3333333333334)"></rect>
        <rect width="6.578947368421053" height="6.578947368421053" x="530.0438596491229"
            y="530.0438596491229" transform="rotate(45, 533.3333333333334, 533.3333333333334)"></rect>
        <rect width="6.578947368421053" height="6.578947368421053" x="574.4883040935673"
            y="530.0438596491229" transform="rotate(45, 577.7777777777778, 533.3333333333334)"></rect>
        <rect width="6.578947368421053" height="6.578947368421053" x="618.9327485380118"
            y="530.0438596491229" transform="rotate(45, 622.2222222222223, 533.3333333333334)"></rect>
        <rect width="6.578947368421053" height="6.578947368421053" x="663.3771929824562"
            y="530.0438596491229" fill="#9ca3afff" stroke="none"
            transform="rotate(45, 666.6666666666667, 533.3333333333334)"></rect>
        <rect width="6.578947368421053" height="6.578947368421053" x="707.8216374269007"
            y="530.0438596491229" transform="rotate(45, 711.1111111111112, 533.3333333333334)"></rect>
        <rect width="6.578947368421053" height="6.578947368421053" x="752.2660818713451"
            y="530.0438596491229" transform="rotate(45, 755.5555555555557, 533.3333333333334)"></rect>
        <rect width="6.578947368421053" height="6.578947368421053" x="796.7105263157896"
            y="530.0438596491229" transform="rotate(45, 800.0000000000001, 533.3333333333334)"></rect>
        <rect width="6.578947368421053" height="6.578947368421053" x="-3.2894736842105265"
            y="574.4883040935673" transform="rotate(45, 0, 577.7777777777778)"></rect>
        <rect width="6.578947368421053" height="6.578947368421053" x="41.154970760233915"
            y="574.4883040935673" transform="rotate(45, 44.44444444444444, 577.7777777777778)"></rect>
        <rect width="6.578947368421053" height="6.578947368421053" x="85.59941520467837"
            y="574.4883040935673" transform="rotate(45, 88.88888888888889, 577.7777777777778)"></rect>
        <rect width="6.578947368421053" height="6.578947368421053" x="130.0438596491228"
            y="574.4883040935673" fill="#9ca3afff" stroke="none"
            transform="rotate(45, 133.33333333333331, 577.7777777777778)"></rect>
        <rect width="6.578947368421053" height="6.578947368421053" x="174.48830409356725"
            y="574.4883040935673" fill="#9ca3afff" stroke="none"
            transform="rotate(45, 177.77777777777777, 577.7777777777778)"></rect>
        <rect width="6.578947368421053" height="6.578947368421053" x="218.9327485380117"
            y="574.4883040935673" fill="#9ca3afff" stroke="none"
            transform="rotate(45, 222.22222222222223, 577.7777777777778)"></rect>
        <rect width="6.578947368421053" height="6.578947368421053" x="263.37719298245617"
            y="574.4883040935673" transform="rotate(45, 266.6666666666667, 577.7777777777778)"></rect>
        <rect width="6.578947368421053" height="6.578947368421053" x="307.8216374269006"
            y="574.4883040935673" transform="rotate(45, 311.11111111111114, 577.7777777777778)"></rect>
        <rect width="6.578947368421053" height="6.578947368421053" x="352.2660818713451"
            y="574.4883040935673" transform="rotate(45, 355.5555555555556, 577.7777777777778)"></rect>
        <rect width="6.578947368421053" height="6.578947368421053" x="396.71052631578954"
            y="574.4883040935673" fill="#9ca3afff" stroke="none"
            transform="rotate(45, 400.00000000000006, 577.7777777777778)"></rect>
        <rect width="6.578947368421053" height="6.578947368421053" x="441.154970760234"
            y="574.4883040935673" transform="rotate(45, 444.4444444444445, 577.7777777777778)"></rect>
        <rect width="6.578947368421053" height="6.578947368421053" x="485.59941520467845"
            y="574.4883040935673" fill="#9ca3afff" stroke="none"
            transform="rotate(45, 488.88888888888897, 577.7777777777778)"></rect>
        <rect width="6.578947368421053" height="6.578947368421053" x="530.0438596491229"
            y="574.4883040935673" fill="#9ca3afff" stroke="none"
            transform="rotate(45, 533.3333333333334, 577.7777777777778)"></rect>
        <rect width="6.578947368421053" height="6.578947368421053" x="574.4883040935673"
            y="574.4883040935673" transform="rotate(45, 577.7777777777778, 577.7777777777778)"></rect>
        <rect width="6.578947368421053" height="6.578947368421053" x="618.9327485380118"
            y="574.4883040935673" fill="#9ca3afff" stroke="none"
            transform="rotate(45, 622.2222222222223, 577.7777777777778)"></rect>
        <rect width="6.578947368421053" height="6.578947368421053" x="663.3771929824562"
            y="574.4883040935673" transform="rotate(45, 666.6666666666667, 577.7777777777778)"></rect>
        <rect width="6.578947368421053" height="6.578947368421053" x="707.8216374269007"
            y="574.4883040935673" transform="rotate(45, 711.1111111111112, 577.7777777777778)"></rect>
        <rect width="6.578947368421053" height="6.578947368421053" x="752.2660818713451"
            y="574.4883040935673" transform="rotate(45, 755.5555555555557, 577.7777777777778)"></rect>
        <rect width="6.578947368421053" height="6.578947368421053" x="796.7105263157896"
            y="574.4883040935673" transform="rotate(45, 800.0000000000001, 577.7777777777778)"></rect>
        <rect width="6.578947368421053" height="6.578947368421053" x="-3.2894736842105265"
            y="618.9327485380118" transform="rotate(45, 0, 622.2222222222223)"></rect>
        <rect width="6.578947368421053" height="6.578947368421053" x="41.154970760233915"
            y="618.9327485380118" fill="#9ca3afff" stroke="none"
            transform="rotate(45, 44.44444444444444, 622.2222222222223)"></rect>
        <rect width="6.578947368421053" height="6.578947368421053" x="85.59941520467837"
            y="618.9327485380118" transform="rotate(45, 88.88888888888889, 622.2222222222223)"></rect>
        <rect width="6.578947368421053" height="6.578947368421053" x="130.0438596491228"
            y="618.9327485380118" transform="rotate(45, 133.33333333333331, 622.2222222222223)"></rect>
        <rect width="6.578947368421053" height="6.578947368421053" x="174.48830409356725"
            y="618.9327485380118" transform="rotate(45, 177.77777777777777, 622.2222222222223)"></rect>
        <rect width="6.578947368421053" height="6.578947368421053" x="218.9327485380117"
            y="618.9327485380118" fill="#9ca3afff" stroke="none"
            transform="rotate(45, 222.22222222222223, 622.2222222222223)"></rect>
        <rect width="6.578947368421053" height="6.578947368421053" x="263.37719298245617"
            y="618.9327485380118" transform="rotate(45, 266.6666666666667, 622.2222222222223)"></rect>
        <rect width="6.578947368421053" height="6.578947368421053" x="307.8216374269006"
            y="618.9327485380118" fill="#9ca3afff" stroke="none"
            transform="rotate(45, 311.11111111111114, 622.2222222222223)"></rect>
        <rect width="6.578947368421053" height="6.578947368421053" x="352.2660818713451"
            y="618.9327485380118" transform="rotate(45, 355.5555555555556, 622.2222222222223)"></rect>
        <rect width="6.578947368421053" height="6.578947368421053" x="396.71052631578954"
            y="618.9327485380118" transform="rotate(45, 400.00000000000006, 622.2222222222223)"></rect>
        <rect width="6.578947368421053" height="6.578947368421053" x="441.154970760234"
            y="618.9327485380118" transform="rotate(45, 444.4444444444445, 622.2222222222223)"></rect>
        <rect width="6.578947368421053" height="6.578947368421053" x="485.59941520467845"
            y="618.9327485380118" transform="rotate(45, 488.88888888888897, 622.2222222222223)"></rect>
        <rect width="6.578947368421053" height="6.578947368421053" x="530.0438596491229"
            y="618.9327485380118" transform="rotate(45, 533.3333333333334, 622.2222222222223)"></rect>
        <rect width="6.578947368421053" height="6.578947368421053" x="574.4883040935673"
            y="618.9327485380118" fill="#9ca3afff" stroke="none"
            transform="rotate(45, 577.7777777777778, 622.2222222222223)"></rect>
        <rect width="6.578947368421053" height="6.578947368421053" x="618.9327485380118"
            y="618.9327485380118" fill="#9ca3afff" stroke="none"
            transform="rotate(45, 622.2222222222223, 622.2222222222223)"></rect>
        <rect width="6.578947368421053" height="6.578947368421053" x="663.3771929824562"
            y="618.9327485380118" transform="rotate(45, 666.6666666666667, 622.2222222222223)"></rect>
        <rect width="6.578947368421053" height="6.578947368421053" x="707.8216374269007"
            y="618.9327485380118" transform="rotate(45, 711.1111111111112, 622.2222222222223)"></rect>
        <rect width="6.578947368421053" height="6.578947368421053" x="752.2660818713451"
            y="618.9327485380118" transform="rotate(45, 755.5555555555557, 622.2222222222223)"></rect>
        <rect width="6.578947368421053" height="6.578947368421053" x="796.7105263157896"
            y="618.9327485380118" transform="rotate(45, 800.0000000000001, 622.2222222222223)"></rect>
        <rect width="6.578947368421053" height="6.578947368421053" x="-3.2894736842105265"
            y="663.3771929824562" transform="rotate(45, 0, 666.6666666666667)"></rect>
        <rect width="6.578947368421053" height="6.578947368421053" x="41.154970760233915"
            y="663.3771929824562" transform="rotate(45, 44.44444444444444, 666.6666666666667)"></rect>
        <rect width="6.578947368421053" height="6.578947368421053" x="85.59941520467837"
            y="663.3771929824562" transform="rotate(45, 88.88888888888889, 666.6666666666667)"></rect>
        <rect width="6.578947368421053" height="6.578947368421053" x="130.0438596491228"
            y="663.3771929824562" transform="rotate(45, 133.33333333333331, 666.6666666666667)"></rect>
        <rect width="6.578947368421053" height="6.578947368421053" x="174.48830409356725"
            y="663.3771929824562" transform="rotate(45, 177.77777777777777, 666.6666666666667)"></rect>
        <rect width="6.578947368421053" height="6.578947368421053" x="218.9327485380117"
            y="663.3771929824562" fill="#9ca3afff" stroke="none"
            transform="rotate(45, 222.22222222222223, 666.6666666666667)"></rect>
        <rect width="6.578947368421053" height="6.578947368421053" x="263.37719298245617"
            y="663.3771929824562" transform="rotate(45, 266.6666666666667, 666.6666666666667)"></rect>
        <rect width="6.578947368421053" height="6.578947368421053" x="307.8216374269006"
            y="663.3771929824562" fill="#9ca3afff" stroke="none"
            transform="rotate(45, 311.11111111111114, 666.6666666666667)"></rect>
        <rect width="6.578947368421053" height="6.578947368421053" x="352.2660818713451"
            y="663.3771929824562" transform="rotate(45, 355.5555555555556, 666.6666666666667)"></rect>
        <rect width="6.578947368421053" height="6.578947368421053" x="396.71052631578954"
            y="663.3771929824562" transform="rotate(45, 400.00000000000006, 666.6666666666667)"></rect>
        <rect width="6.578947368421053" height="6.578947368421053" x="441.154970760234"
            y="663.3771929824562" fill="#9ca3afff" stroke="none"
            transform="rotate(45, 444.4444444444445, 666.6666666666667)"></rect>
        <rect width="6.578947368421053" height="6.578947368421053" x="485.59941520467845"
            y="663.3771929824562" fill="#9ca3afff" stroke="none"
            transform="rotate(45, 488.88888888888897, 666.6666666666667)"></rect>
        <rect width="6.578947368421053" height="6.578947368421053" x="530.0438596491229"
            y="663.3771929824562" fill="#9ca3afff" stroke="none"
            transform="rotate(45, 533.3333333333334, 666.6666666666667)"></rect>
        <rect width="6.578947368421053" height="6.578947368421053" x="574.4883040935673"
            y="663.3771929824562" transform="rotate(45, 577.7777777777778, 666.6666666666667)"></rect>
        <rect width="6.578947368421053" height="6.578947368421053" x="618.9327485380118"
            y="663.3771929824562" transform="rotate(45, 622.2222222222223, 666.6666666666667)"></rect>
        <rect width="6.578947368421053" height="6.578947368421053" x="663.3771929824562"
            y="663.3771929824562" transform="rotate(45, 666.6666666666667, 666.6666666666667)"></rect>
        <rect width="6.578947368421053" height="6.578947368421053" x="707.8216374269007"
            y="663.3771929824562" transform="rotate(45, 711.1111111111112, 666.6666666666667)"></rect>
        <rect width="6.578947368421053" height="6.578947368421053" x="752.2660818713451"
            y="663.3771929824562" transform="rotate(45, 755.5555555555557, 666.6666666666667)"></rect>
        <rect width="6.578947368421053" height="6.578947368421053" x="796.7105263157896"
            y="663.3771929824562" transform="rotate(45, 800.0000000000001, 666.6666666666667)"></rect>
        <rect width="6.578947368421053" height="6.578947368421053" x="-3.2894736842105265"
            y="707.8216374269007" transform="rotate(45, 0, 711.1111111111112)"></rect>
        <rect width="6.578947368421053" height="6.578947368421053" x="41.154970760233915"
            y="707.8216374269007" transform="rotate(45, 44.44444444444444, 711.1111111111112)"></rect>
        <rect width="6.578947368421053" height="6.578947368421053" x="85.59941520467837"
            y="707.8216374269007" transform="rotate(45, 88.88888888888889, 711.1111111111112)"></rect>
        <rect width="6.578947368421053" height="6.578947368421053" x="130.0438596491228"
            y="707.8216374269007" transform="rotate(45, 133.33333333333331, 711.1111111111112)"></rect>
        <rect width="6.578947368421053" height="6.578947368421053" x="174.48830409356725"
            y="707.8216374269007" transform="rotate(45, 177.77777777777777, 711.1111111111112)"></rect>
        <rect width="6.578947368421053" height="6.578947368421053" x="218.9327485380117"
            y="707.8216374269007" transform="rotate(45, 222.22222222222223, 711.1111111111112)"></rect>
        <rect width="6.578947368421053" height="6.578947368421053" x="263.37719298245617"
            y="707.8216374269007" transform="rotate(45, 266.6666666666667, 711.1111111111112)"></rect>
        <rect width="6.578947368421053" height="6.578947368421053" x="307.8216374269006"
            y="707.8216374269007" fill="#9ca3afff" stroke="none"
            transform="rotate(45, 311.11111111111114, 711.1111111111112)"></rect>
        <rect width="6.578947368421053" height="6.578947368421053" x="352.2660818713451"
            y="707.8216374269007" transform="rotate(45, 355.5555555555556, 711.1111111111112)"></rect>
        <rect width="6.578947368421053" height="6.578947368421053" x="396.71052631578954"
            y="707.8216374269007" fill="#9ca3afff" stroke="none"
            transform="rotate(45, 400.00000000000006, 711.1111111111112)"></rect>
        <rect width="6.578947368421053" height="6.578947368421053" x="441.154970760234"
            y="707.8216374269007" transform="rotate(45, 444.4444444444445, 711.1111111111112)"></rect>
        <rect width="6.578947368421053" height="6.578947368421053" x="485.59941520467845"
            y="707.8216374269007" fill="#9ca3afff" stroke="none"
            transform="rotate(45, 488.88888888888897, 711.1111111111112)"></rect>
        <rect width="6.578947368421053" height="6.578947368421053" x="530.0438596491229"
            y="707.8216374269007" transform="rotate(45, 533.3333333333334, 711.1111111111112)"></rect>
        <rect width="6.578947368421053" height="6.578947368421053" x="574.4883040935673"
            y="707.8216374269007" transform="rotate(45, 577.7777777777778, 711.1111111111112)"></rect>
        <rect width="6.578947368421053" height="6.578947368421053" x="618.9327485380118"
            y="707.8216374269007" transform="rotate(45, 622.2222222222223, 711.1111111111112)"></rect>
        <rect width="6.578947368421053" height="6.578947368421053" x="663.3771929824562"
            y="707.8216374269007" transform="rotate(45, 666.6666666666667, 711.1111111111112)"></rect>
        <rect width="6.578947368421053" height="6.578947368421053" x="707.8216374269007"
            y="707.8216374269007" transform="rotate(45, 711.1111111111112, 711.1111111111112)"></rect>
        <rect width="6.578947368421053" height="6.578947368421053" x="752.2660818713451"
            y="707.8216374269007" transform="rotate(45, 755.5555555555557, 711.1111111111112)"></rect>
        <rect width="6.578947368421053" height="6.578947368421053" x="796.7105263157896"
            y="707.8216374269007" transform="rotate(45, 800.0000000000001, 711.1111111111112)"></rect>
        <rect width="6.578947368421053" height="6.578947368421053" x="-3.2894736842105265"
            y="752.2660818713451" transform="rotate(45, 0, 755.5555555555557)"></rect>
        <rect width="6.578947368421053" height="6.578947368421053" x="41.154970760233915"
            y="752.2660818713451" transform="rotate(45, 44.44444444444444, 755.5555555555557)"></rect>
        <rect width="6.578947368421053" height="6.578947368421053" x="85.59941520467837"
            y="752.2660818713451" fill="#9ca3afff" stroke="none"
            transform="rotate(45, 88.88888888888889, 755.5555555555557)"></rect>
        <rect width="6.578947368421053" height="6.578947368421053" x="130.0438596491228"
            y="752.2660818713451" fill="#9ca3afff" stroke="none"
            transform="rotate(45, 133.33333333333331, 755.5555555555557)"></rect>
        <rect width="6.578947368421053" height="6.578947368421053" x="174.48830409356725"
            y="752.2660818713451" transform="rotate(45, 177.77777777777777, 755.5555555555557)"></rect>
        <rect width="6.578947368421053" height="6.578947368421053" x="218.9327485380117"
            y="752.2660818713451" transform="rotate(45, 222.22222222222223, 755.5555555555557)"></rect>
        <rect width="6.578947368421053" height="6.578947368421053" x="263.37719298245617"
            y="752.2660818713451" transform="rotate(45, 266.6666666666667, 755.5555555555557)"></rect>
        <rect width="6.578947368421053" height="6.578947368421053" x="307.8216374269006"
            y="752.2660818713451" transform="rotate(45, 311.11111111111114, 755.5555555555557)"></rect>
        <rect width="6.578947368421053" height="6.578947368421053" x="352.2660818713451"
            y="752.2660818713451" transform="rotate(45, 355.5555555555556, 755.5555555555557)"></rect>
        <rect width="6.578947368421053" height="6.578947368421053" x="396.71052631578954"
            y="752.2660818713451" transform="rotate(45, 400.00000000000006, 755.5555555555557)"></rect>
        <rect width="6.578947368421053" height="6.578947368421053" x="441.154970760234"
            y="752.2660818713451" transform="rotate(45, 444.4444444444445, 755.5555555555557)"></rect>
        <rect width="6.578947368421053" height="6.578947368421053" x="485.59941520467845"
            y="752.2660818713451" transform="rotate(45, 488.88888888888897, 755.5555555555557)"></rect>
        <rect width="6.578947368421053" height="6.578947368421053" x="530.0438596491229"
            y="752.2660818713451" transform="rotate(45, 533.3333333333334, 755.5555555555557)"></rect>
        <rect width="6.578947368421053" height="6.578947368421053" x="574.4883040935673"
            y="752.2660818713451" transform="rotate(45, 577.7777777777778, 755.5555555555557)"></rect>
        <rect width="6.578947368421053" height="6.578947368421053" x="618.9327485380118"
            y="752.2660818713451" fill="#9ca3afff" stroke="none"
            transform="rotate(45, 622.2222222222223, 755.5555555555557)"></rect>
        <rect width="6.578947368421053" height="6.578947368421053" x="663.3771929824562"
            y="752.2660818713451" fill="#9ca3afff" stroke="none"
            transform="rotate(45, 666.6666666666667, 755.5555555555557)"></rect>
        <rect width="6.578947368421053" height="6.578947368421053" x="707.8216374269007"
            y="752.2660818713451" transform="rotate(45, 711.1111111111112, 755.5555555555557)"></rect>
        <rect width="6.578947368421053" height="6.578947368421053" x="752.2660818713451"
            y="752.2660818713451" transform="rotate(45, 755.5555555555557, 755.5555555555557)"></rect>
        <rect width="6.578947368421053" height="6.578947368421053" x="796.7105263157896"
            y="752.2660818713451" transform="rotate(45, 800.0000000000001, 755.5555555555557)"></rect>
        <rect width="6.578947368421053" height="6.578947368421053" x="-3.2894736842105265"
            y="796.7105263157896" transform="rotate(45, 0, 800.0000000000001)"></rect>
        <rect width="6.578947368421053" height="6.578947368421053" x="41.154970760233915"
            y="796.7105263157896" transform="rotate(45, 44.44444444444444, 800.0000000000001)"></rect>
        <rect width="6.578947368421053" height="6.578947368421053" x="85.59941520467837"
            y="796.7105263157896" transform="rotate(45, 88.88888888888889, 800.0000000000001)"></rect>
        <rect width="6.578947368421053" height="6.578947368421053" x="130.0438596491228"
            y="796.7105263157896" transform="rotate(45, 133.33333333333331, 800.0000000000001)"></rect>
        <rect width="6.578947368421053" height="6.578947368421053" x="174.48830409356725"
            y="796.7105263157896" transform="rotate(45, 177.77777777777777, 800.0000000000001)"></rect>
        <rect width="6.578947368421053" height="6.578947368421053" x="218.9327485380117"
            y="796.7105263157896" transform="rotate(45, 222.22222222222223, 800.0000000000001)"></rect>
        <rect width="6.578947368421053" height="6.578947368421053" x="263.37719298245617"
            y="796.7105263157896" transform="rotate(45, 266.6666666666667, 800.0000000000001)"></rect>
        <rect width="6.578947368421053" height="6.578947368421053" x="307.8216374269006"
            y="796.7105263157896" transform="rotate(45, 311.11111111111114, 800.0000000000001)"></rect>
        <rect width="6.578947368421053" height="6.578947368421053" x="352.2660818713451"
            y="796.7105263157896" transform="rotate(45, 355.5555555555556, 800.0000000000001)"></rect>
        <rect width="6.578947368421053" height="6.578947368421053" x="396.71052631578954"
            y="796.7105263157896" transform="rotate(45, 400.00000000000006, 800.0000000000001)"></rect>
        <rect width="6.578947368421053" height="6.578947368421053" x="441.154970760234"
            y="796.7105263157896" transform="rotate(45, 444.4444444444445, 800.0000000000001)"></rect>
        <rect width="6.578947368421053" height="6.578947368421053" x="485.59941520467845"
            y="796.7105263157896" transform="rotate(45, 488.88888888888897, 800.0000000000001)"></rect>
        <rect width="6.578947368421053" height="6.578947368421053" x="530.0438596491229"
            y="796.7105263157896" transform="rotate(45, 533.3333333333334, 800.0000000000001)"></rect>
        <rect width="6.578947368421053" height="6.578947368421053" x="574.4883040935673"
            y="796.7105263157896" transform="rotate(45, 577.7777777777778, 800.0000000000001)"></rect>
        <rect width="6.578947368421053" height="6.578947368421053" x="618.9327485380118"
            y="796.7105263157896" transform="rotate(45, 622.2222222222223, 800.0000000000001)"></rect>
        <rect width="6.578947368421053" height="6.578947368421053" x="663.3771929824562"
            y="796.7105263157896" transform="rotate(45, 666.6666666666667, 800.0000000000001)"></rect>
        <rect width="6.578947368421053" height="6.578947368421053" x="707.8216374269007"
            y="796.7105263157896" transform="rotate(45, 711.1111111111112, 800.0000000000001)"></rect>
        <rect width="6.578947368421053" height="6.578947368421053" x="752.2660818713451"
            y="796.7105263157896" transform="rotate(45, 755.5555555555557, 800.0000000000001)"></rect>
        <rect width="6.578947368421053" height="6.578947368421053" x="796.7105263157896"
            y="796.7105263157896" transform="rotate(45, 800.0000000000001, 800.0000000000001)"></rect>
    </g>
</svg>