<?xml version="1.0" encoding="UTF-8"?>
<svg xmlns="http://www.w3.org/2000/svg" width="350" height="336" viewBox="0 0 350 336" fill="none">
    <path
        d="M74.1894 18.5845C72.3589 18.5845 70.875 17.2097 70.875 15.5139C70.875 14.0266 72.0166 12.7862 73.5323 12.5038C73.5285 12.4431 73.5265 12.382 73.5265 12.3206C73.5265 10.6248 75.0104 9.25 76.8409 9.25C78.1451 9.25 79.2734 9.94783 79.8143 10.9626C80.2868 10.6572 80.8614 10.4782 81.4811 10.4782C82.847 10.4782 83.9935 11.3481 84.3107 12.5223C84.5517 12.4707 84.8027 12.4434 85.0606 12.4434C86.8911 12.4434 88.375 13.8182 88.375 15.5139C88.375 17.2097 86.8911 18.5845 85.0606 18.5845H74.1894Z"
        fill="white" />
    <path
        d="M337.293 49.5C341.411 49.5 344.75 46.2782 344.75 42.3043C344.75 38.8188 342.181 35.9119 338.771 35.2502C338.78 35.108 338.784 34.9646 338.784 34.8207C338.784 30.8468 335.445 27.625 331.327 27.625C328.392 27.625 325.854 29.2603 324.636 31.6383C323.573 30.9227 322.281 30.5033 320.886 30.5033C317.813 30.5033 315.233 32.5417 314.52 35.2935C313.978 35.1726 313.413 35.1086 312.832 35.1086C308.714 35.1086 305.375 38.3303 305.375 42.3043C305.375 46.2782 308.714 49.5 312.832 49.5H337.293Z"
        fill="white" />
    <path
        d="M274.226 67C275.965 67 277.375 65.5824 277.375 63.8339C277.375 62.3003 276.29 61.0212 274.851 60.7301C274.854 60.6675 274.856 60.6044 274.856 60.5411C274.856 58.7926 273.446 57.375 271.707 57.375C270.468 57.375 269.397 58.0945 268.883 59.1409C268.434 58.826 267.888 58.6414 267.299 58.6414C266.002 58.6414 264.912 59.5383 264.611 60.7491C264.382 60.696 264.144 60.6678 263.899 60.6678C262.16 60.6678 260.75 62.0853 260.75 63.8339C260.75 65.5824 262.16 67 263.899 67H274.226Z"
        fill="white" />
    <path
        d="M14.8617 62.625C9.55332 62.625 5.25 58.63 5.25 53.7023C5.25 49.3804 8.56061 45.7757 12.9563 44.9553C12.9452 44.7789 12.9394 44.6012 12.9394 44.4227C12.9394 39.495 17.2427 35.5 22.5511 35.5C26.3333 35.5 29.6053 37.5278 31.1741 40.4765C32.5442 39.5891 34.2104 39.0691 36.0076 39.0691C39.9687 39.0691 43.2937 41.5967 44.2134 45.0089C44.9123 44.8591 45.6403 44.7796 46.3883 44.7796C51.6967 44.7796 56 48.7746 56 53.7023C56 58.63 51.6967 62.625 46.3883 62.625H14.8617Z"
        fill="white" />
    <rect x="9.625" y="83.625" width="267.371" height="197.087" rx="10" fill="#1B1C1E"
        stroke="#1B1C1E" />
    <rect x="14" y="83.625" width="278.618" height="197.087" rx="10" fill="white" stroke="#1B1C1E" />
    <rect x="120.75" y="200" width="49.875" height="5.94012" rx="2.97006" fill="#CFE1FB"
        stroke="#1B1C1E" />
    <g style="mix-blend-mode:multiply">
        <path
            d="M120.91 204.043C121.257 205.153 122.125 205.94 123.141 205.94H168.233C169.554 205.94 170.624 204.61 170.624 202.969C170.624 201.708 169.991 200.629 169.097 200.199C169.201 200.532 169.258 200.894 169.258 201.272C169.258 202.913 168.187 204.242 166.867 204.242H121.774C121.469 204.242 121.178 204.172 120.91 204.043Z"
            fill="#CFE1FB" />
    </g>
    <path
        d="M120.75 218.375H264.25M120.75 230.625H264.25M120.75 242.875H264.25M120.75 255.125H180.688M192.5 255.125H186.375"
        stroke="#1B1C1E" stroke-linecap="round" stroke-linejoin="round" />
    <path fill-rule="evenodd" clip-rule="evenodd"
        d="M81.3942 190.473C79.1525 190.884 77.2299 191.7 75.3765 193.027C74.0806 193.955 64.8589 203.219 64.085 204.37C63.265 205.589 62.553 207.195 62.125 208.79C61.6049 210.729 61.6049 213.828 62.125 215.785C62.328 216.548 62.5362 217.215 62.5881 217.266C62.64 217.318 66.6822 213.37 71.5711 208.492C77.7879 202.29 80.6969 199.506 81.2485 199.23C82.4292 198.64 84.1996 198.573 85.543 199.069C86.4832 199.416 86.9039 199.767 89.5102 202.372C92.1165 204.977 92.4669 205.398 92.814 206.337C93.3102 207.68 93.2439 209.45 92.6536 210.63C92.3777 211.182 89.5924 214.089 83.3872 220.304C78.5076 225.191 74.5577 229.231 74.6096 229.283C74.6613 229.335 75.3285 229.543 76.0918 229.746C78.0492 230.266 81.15 230.266 83.089 229.746C84.6848 229.318 86.2915 228.607 87.5114 227.787C88.6629 227.013 97.93 217.795 98.8585 216.5C99.8809 215.074 100.624 213.545 101.092 211.909C101.605 210.114 101.64 206.584 101.163 204.848C100.779 203.455 99.8832 201.483 99.1179 200.35C98.3226 199.171 93.1332 193.942 91.8252 193.001C90.5577 192.089 88.6001 191.154 87.1206 190.753C85.8888 190.42 82.5698 190.257 81.3942 190.473ZM73.536 211.011C72.6478 211.345 71.6631 212.28 61.0387 222.873C48.0318 235.841 48.3897 235.417 48.3951 237.863C48.4 240.09 49.5462 241.903 51.583 242.905C52.559 243.385 52.9317 243.473 53.9918 243.473C56.4566 243.473 56.0207 243.841 69.001 230.832C79.8899 219.919 80.5244 219.249 80.8766 218.289C82.5758 213.657 78.1551 209.274 73.536 211.011ZM48.2388 224.125C46.0489 224.391 43.8267 225.217 41.9848 226.448C41.0056 227.103 31.6781 236.324 30.7683 237.537C27.898 241.363 27.1939 246.658 28.9654 251.096C29.8833 253.396 30.5142 254.221 34.0772 257.783C36.4362 260.141 37.8479 261.411 38.5755 261.83C43.0833 264.429 47.9527 264.553 52.5827 262.188C54.0968 261.415 54.3951 261.153 59.311 256.286C64.5851 251.063 65.6067 249.879 66.5181 247.932C68.0088 244.748 68.2272 240.441 67.0542 237.36L66.8577 236.844L57.9707 245.71C51.9813 251.686 48.8267 254.71 48.295 254.986C47.6393 255.326 47.24 255.395 45.9287 255.395C43.6868 255.394 43.0696 255.035 39.9478 251.914C36.826 248.794 36.4667 248.177 36.4661 245.936C36.466 244.625 36.5348 244.226 36.8751 243.571C37.151 243.039 40.1764 239.886 46.1546 233.899L55.0247 225.015L54.5082 224.819C52.867 224.194 50.1438 223.893 48.2388 224.125Z"
        fill="#FFC5C3" stroke="#1B1C1E" stroke-linejoin="round" />
    <g style="mix-blend-mode:multiply">
        <path
            d="M62.0586 215.517C62.0797 215.608 62.1018 215.698 62.1249 215.785C62.3279 216.548 62.5361 217.215 62.588 217.266C62.6399 217.318 66.6821 213.37 71.571 208.492C77.7878 202.29 80.6968 199.506 81.2485 199.23C81.5844 199.062 81.9681 198.936 82.376 198.854C81.1777 198.615 79.8175 198.747 78.8517 199.23C78.3001 199.506 75.3911 202.29 69.1743 208.492C66.2944 211.366 63.7083 213.916 62.0586 215.517Z"
            fill="#FFC5C3" />
        <path
            d="M78.3982 230.096C79.2369 230.04 80.0319 229.923 80.6922 229.746C82.288 229.318 83.8947 228.607 85.1146 227.787C86.2661 227.013 95.5332 217.795 96.4617 216.5C97.4841 215.074 98.2275 213.545 98.6952 211.909C99.2084 210.114 99.2436 206.584 98.766 204.848C98.3825 203.455 97.4864 201.483 96.7211 200.35C95.9258 199.171 90.7364 193.942 89.4284 193.001C88.1609 192.089 86.2033 191.154 84.7238 190.753C84.1205 190.59 83.0166 190.468 81.909 190.411C83.3442 190.299 86.0382 190.46 87.1205 190.753C88.6001 191.154 90.5576 192.089 91.8251 193.001C93.1331 193.942 98.3226 199.171 99.1178 200.35C99.8831 201.483 100.779 203.455 101.163 204.848C101.64 206.584 101.605 210.114 101.092 211.909C100.624 213.545 99.8809 215.074 98.8584 216.5C97.9299 217.795 88.6628 227.013 87.5114 227.787C86.2914 228.607 84.6847 229.318 83.089 229.746C81.8102 230.089 80.0263 230.206 78.3982 230.096Z"
            fill="#FFC5C3" />
        <path
            d="M52.8957 243.399C54.4528 243.054 56.3068 241.152 66.6042 230.832C77.4931 219.919 78.1276 219.249 78.4798 218.289C79.7619 214.794 77.5599 211.441 74.4174 210.751C78.695 209.835 82.4671 213.953 80.8765 218.289C80.5244 219.249 79.8898 219.919 69.001 230.832C58.1399 241.717 56.6718 243.237 55.038 243.443C54.7193 243.483 54.3941 243.473 53.9917 243.473C53.5323 243.473 53.202 243.457 52.8957 243.399Z"
            fill="#FFC5C3" />
        <path
            d="M44.6799 263.822C47.3188 264.057 49.9883 263.514 52.5826 262.189C54.0967 261.415 54.395 261.153 59.3109 256.286C64.585 251.063 65.6066 249.879 66.5181 247.932C68.0087 244.748 68.2271 240.441 67.0541 237.36L66.8576 236.844L65.0511 238.646C65.75 241.564 65.4141 245.171 64.1213 247.932C63.2099 249.879 62.1883 251.063 56.9142 256.286C51.9983 261.153 51.7 261.415 50.1859 262.189C48.3752 263.113 46.5279 263.657 44.6799 263.822Z"
            fill="#FFC5C3" />
        <path
            d="M44.8104 255.341C44.4909 255.382 44.0957 255.395 43.5319 255.395C41.29 255.394 40.6728 255.035 37.551 251.914C34.4292 248.794 34.0699 248.177 34.0693 245.936C34.0692 244.625 34.138 244.226 34.4783 243.571C34.7542 243.039 37.7796 239.886 43.7578 233.899L52.6279 225.015L52.1114 224.819C51.1514 224.454 49.8212 224.199 48.501 224.097C50.3869 223.921 52.9409 224.223 54.5081 224.819L55.0247 225.015L46.1546 233.899C40.1763 239.886 37.1509 243.039 36.875 243.571C36.5348 244.226 36.4659 244.625 36.4661 245.936C36.4666 248.177 36.8259 248.794 39.9478 251.914C42.4834 254.449 43.3667 255.162 44.8104 255.341Z"
            fill="#FFC5C3" />
    </g>
    <g style="mix-blend-mode:overlay">
        <path d="M71.141 215.539L70.1338 216.525M68.6932 217.936L58.7578 227.664" stroke="#FFC5C3"
            stroke-linecap="round" stroke-linejoin="round" />
    </g>
    <g style="mix-blend-mode:overlay">
        <path d="M76.7339 194.369L75.7267 195.355M74.2861 196.766L67.9453 203.106" stroke="#FFC5C3"
            stroke-linecap="round" stroke-linejoin="round" />
    </g>
    <g style="mix-blend-mode:overlay">
        <path d="M93.5102 213.543L92.5031 214.529M91.0625 215.94L84.7217 222.28" stroke="#FFC5C3"
            stroke-linecap="round" stroke-linejoin="round" />
    </g>
    <g style="mix-blend-mode:overlay">
        <path d="M42.3813 228.723L41.3742 229.709M39.9336 231.119L33.5928 237.46" stroke="#FFC5C3"
            stroke-linecap="round" stroke-linejoin="round" />
    </g>
    <g style="mix-blend-mode:overlay">
        <path d="M60.7563 245.5L59.7492 246.486M58.3086 247.897L51.9678 254.237" stroke="#FFC5C3"
            stroke-linecap="round" stroke-linejoin="round" />
    </g>
    <path
        d="M13.7021 93.625C13.7021 88.1022 18.1793 83.625 23.7021 83.625H282.32C287.843 83.625 292.32 88.1022 292.32 93.625V117.187H13.7021V93.625Z"
        fill="#DBE8FC" stroke="#1B1C1E" />
    <g style="mix-blend-mode:multiply">
        <path
            d="M275.117 280.712H283.387C288.219 280.712 292.137 276.795 292.137 271.962V92.375C292.137 87.5425 288.219 83.625 283.387 83.625H275.117C279.95 83.625 283.867 87.5425 283.867 92.375V271.962C283.867 276.795 279.95 280.712 275.117 280.712Z"
            fill="#EDF4FF" />
    </g>
    <ellipse cx="30.2808" cy="101.343" rx="5.89309" ry="5.90555" fill="#FFC5C3" stroke="#1B1C1E" />
    <g style="mix-blend-mode:overlay">
        <path
            d="M26.1992 101.484C26.1992 99.9444 27.0194 98.597 28.2458 97.8565M30.4221 97.252C30.3448 97.252 30.268 97.254 30.1918 97.2581"
            stroke="#FFC5C3" stroke-linecap="round" />
    </g>
    <g style="mix-blend-mode:color-burn">
        <path
            d="M28.4708 105.434C31.7255 105.434 34.3639 102.79 34.3639 99.5284C34.3639 98.3622 34.0266 97.275 33.4444 96.3594C35.0852 97.4078 36.1733 99.2477 36.1733 101.342C36.1733 104.604 33.5349 107.248 30.2803 107.248C28.1893 107.248 26.3527 106.157 25.3066 104.511C26.2207 105.095 27.3063 105.434 28.4708 105.434Z"
            fill="#FFC5C3" />
    </g>
    <ellipse cx="48.5025" cy="101.343" rx="5.89309" ry="5.90555" fill="#FFDAA1" stroke="#1B1C1E" />
    <g style="mix-blend-mode:overlay">
        <path
            d="M44.4209 101.484C44.4209 99.9444 45.2411 98.597 46.4674 97.8565M48.6438 97.252C48.5665 97.252 48.4897 97.254 48.4135 97.2581"
            stroke="#FFDAA1" stroke-linecap="round" />
    </g>
    <g style="mix-blend-mode:color-burn">
        <path
            d="M46.6935 105.434C49.9481 105.434 52.5866 102.79 52.5866 99.5284C52.5866 98.3622 52.2493 97.275 51.6671 96.3594C53.3078 97.4078 54.396 99.2477 54.396 101.342C54.396 104.604 51.7576 107.248 48.5029 107.248C46.412 107.248 44.5753 106.157 43.5293 104.511C44.4434 105.095 45.529 105.434 46.6935 105.434Z"
            fill="#FFDAA1" />
    </g>
    <ellipse cx="66.7241" cy="101.343" rx="5.89309" ry="5.90555" fill="#AAE2CB" stroke="#1B1C1E" />
    <g style="mix-blend-mode:overlay">
        <path
            d="M62.6426 101.484C62.6426 99.9444 63.4628 98.597 64.6891 97.8565M66.8655 97.252C66.7882 97.252 66.7114 97.254 66.6352 97.2581"
            stroke="#AAE2CB" stroke-linecap="round" />
    </g>
    <g style="mix-blend-mode:color-burn">
        <path
            d="M64.9142 105.434C68.1688 105.434 70.8073 102.79 70.8073 99.5284C70.8073 98.3622 70.47 97.275 69.8878 96.3594C71.5285 97.4078 72.6167 99.2477 72.6167 101.342C72.6167 104.604 69.9783 107.248 66.7236 107.248C64.6327 107.248 62.796 106.157 61.75 104.511C62.6641 105.095 63.7497 105.434 64.9142 105.434Z"
            fill="#AAE2CB" />
    </g>
    <g style="mix-blend-mode:overlay">
        <path
            d="M55.5729 85.9629H54.1544M15.8555 97.6692V93.9629C15.8555 89.5446 19.4372 85.9629 23.8555 85.9629H51.3174"
            stroke="#DBE8FC" stroke-linecap="round" />
    </g>
    <path
        d="M203 258.503C204.896 263.595 211.421 272.249 225.749 271.232C243.685 269.959 246.748 250.442 239.748 252.139C232.192 253.971 255.283 287.735 288.746 268.262C313.682 253.751 324.765 207.588 324.619 198.678"
        stroke="#1B1C1E" stroke-dasharray="2 4" />
    <path
        d="M324.672 197.368L312.315 200.7C311.613 200.895 310.791 200.611 310.667 199.916C310.588 199.476 310.663 199.117 310.846 198.847C316.005 191.339 321.173 183.835 326.282 176.422C326.568 176.006 326.995 175.649 327.516 175.648C328.673 175.647 328.885 176.699 329.182 177.539C330.443 181.242 331.619 184.98 332.831 188.703C334.281 193.162 335.733 197.63 337.202 202.071C337.426 202.754 337.663 203.392 337.309 204.065C337.096 204.256 336.818 204.366 336.525 204.374C336.233 204.383 335.947 204.289 335.719 204.11C332.245 201.972 328.184 199.507 324.672 197.368Z"
        fill="#0F67EA" />
    <path
        d="M327.317 180.077L324.672 197.368M324.672 197.368L312.315 200.7C311.613 200.895 310.791 200.611 310.667 199.916C310.588 199.476 310.663 199.117 310.846 198.847C316.005 191.339 321.173 183.835 326.282 176.422C326.568 176.006 326.995 175.649 327.516 175.648C328.673 175.647 328.885 176.699 329.182 177.539C330.443 181.242 331.619 184.98 332.831 188.703C334.281 193.162 335.733 197.63 337.202 202.071C337.426 202.754 337.663 203.392 337.309 204.065C337.096 204.256 336.818 204.366 336.525 204.374C336.233 204.383 335.947 204.289 335.719 204.11C332.245 201.972 328.184 199.507 324.672 197.368Z"
        stroke="#1B1C1E" stroke-linecap="round" stroke-linejoin="round" />
    <g style="mix-blend-mode:screen">
        <path d="M320.305 188.551L319.977 189.015M319.155 190.174L313.566 198.055" stroke="#0F67EA"
            stroke-opacity="0.8" stroke-linecap="round" stroke-linejoin="round" />
    </g>
    <g style="mix-blend-mode:multiply">
        <path
            d="M326.204 176.78C327.085 176.874 327.346 177.656 327.589 178.384C327.62 178.478 327.651 178.571 327.683 178.661C328.567 181.257 329.41 183.871 330.252 186.484C330.611 187.598 330.97 188.713 331.332 189.825L331.534 190.446C332.917 194.699 334.303 198.958 335.703 203.193C335.713 203.223 335.723 203.254 335.733 203.284C335.804 203.499 335.874 203.711 335.923 203.92C335.945 203.934 335.968 203.948 335.991 203.962C336.218 204.14 336.505 204.234 336.797 204.226C337.09 204.218 337.368 204.108 337.581 203.916C337.919 203.273 337.718 202.663 337.504 202.014C337.494 201.984 337.484 201.953 337.474 201.923C336.073 197.688 334.688 193.428 333.305 189.176L333.103 188.555C332.741 187.442 332.382 186.328 332.023 185.214C331.18 182.601 330.338 179.987 329.453 177.391C329.421 177.3 329.39 177.208 329.359 177.114C329.1 176.337 328.821 175.498 327.787 175.5C327.266 175.501 326.84 175.857 326.553 176.274C326.437 176.442 326.32 176.611 326.204 176.78Z"
            fill="#0F67EA" fill-opacity="0.5" />
    </g>
    <rect x="24.5" y="130.875" width="316.75" height="32.375" rx="6" fill="#1B1C1E" stroke="#1B1C1E" />
    <rect x="28" y="130.875" width="316.75" height="32.375" rx="6" fill="#DBE8FC" stroke="#1B1C1E" />
    <path
        d="M327.03 150.678C328.095 149.704 328.768 148.279 328.768 146.691C328.768 143.755 326.469 141.375 323.634 141.375C320.798 141.375 318.5 143.755 318.5 146.691C318.5 149.627 320.798 152.008 323.634 152.008C324.936 152.008 326.125 151.506 327.03 150.678ZM327.03 150.678L329.875 153.625"
        stroke="#1B1C1E" stroke-linecap="round" stroke-linejoin="round" />
    <path
        d="M44.2925 151.001V146.502C44.2925 145.117 43.5933 144.47 42.2609 144.47C41.2979 144.47 40.4272 145.024 39.9787 145.552V142.201H38.9893V151.001H39.9787V146.344C40.3612 145.829 41.1 145.354 41.8652 145.354C42.7226 145.354 43.3031 145.684 43.3031 146.805V151.001H44.2925Z"
        fill="#1B1C1E" />
    <path
        d="M48.5372 151.159C49.1177 151.159 49.4738 150.987 49.7245 150.75L49.4343 150.011C49.3024 150.156 49.0385 150.275 48.7615 150.275C48.3261 150.275 48.1151 149.932 48.1151 149.457V145.499H49.4079V144.629H48.1151V142.887H47.1256V144.629H46.0703V145.499H47.1256V149.668C47.1256 150.618 47.6006 151.159 48.5372 151.159Z"
        fill="#1B1C1E" />
    <path
        d="M53.0746 151.159C53.655 151.159 54.0112 150.987 54.2619 150.75L53.9717 150.011C53.8397 150.156 53.5759 150.275 53.2989 150.275C52.8635 150.275 52.6524 149.932 52.6524 149.457V145.499H53.9453V144.629H52.6524V142.887H51.663V144.629H50.6077V145.499H51.663V149.668C51.663 150.618 52.1379 151.159 53.0746 151.159Z"
        fill="#1B1C1E" />
    <path
        d="M59.1423 151.159C60.8177 151.159 61.9786 149.866 61.9786 147.808C61.9786 145.737 60.8177 144.47 59.1423 144.47C58.2452 144.47 57.4537 144.932 56.9919 145.579V144.629H56.0025V153.428H56.9919V150.038C57.5064 150.75 58.2716 151.159 59.1423 151.159ZM58.8916 150.275C58.1133 150.275 57.3349 149.8 56.9919 149.246V146.37C57.3349 145.816 58.1133 145.354 58.8916 145.354C60.1713 145.354 60.9364 146.396 60.9364 147.808C60.9364 149.22 60.1713 150.275 58.8916 150.275Z"
        fill="#1B1C1E" />
    <path
        d="M66.23 151.159C67.879 151.159 68.7365 150.301 68.7365 149.233C68.7365 146.753 64.792 147.676 64.792 146.278C64.792 145.71 65.3329 145.275 66.2036 145.275C67.0215 145.275 67.7207 145.618 68.1033 146.08L68.565 145.394C68.0505 144.879 67.2854 144.47 66.2036 144.47C64.6865 144.47 63.829 145.315 63.829 146.304C63.829 148.666 67.7735 147.716 67.7735 149.259C67.7735 149.892 67.2458 150.354 66.2696 150.354C65.3989 150.354 64.5942 149.932 64.172 149.444L63.6575 150.156C64.3039 150.842 65.1878 151.159 66.23 151.159Z"
        fill="#1B1C1E" />
    <path
        d="M71.5312 145.988C71.9269 145.988 72.2567 145.658 72.2567 145.262C72.2567 144.866 71.9269 144.536 71.5312 144.536C71.1354 144.536 70.8056 144.866 70.8056 145.262C70.8056 145.658 71.1354 145.988 71.5312 145.988ZM71.5312 151.132C71.9269 151.132 72.2567 150.803 72.2567 150.407C72.2567 150.011 71.9269 149.681 71.5312 149.681C71.1354 149.681 70.8056 150.011 70.8056 150.407C70.8056 150.803 71.1354 151.132 71.5312 151.132Z"
        fill="#1B1C1E" />
    <path d="M74.4924 151.264L77.619 141.938H76.8406L73.7141 151.264H74.4924Z" fill="#1B1C1E" />
    <path d="M79.0556 151.264L82.1821 141.938H81.4038L78.2772 151.264H79.0556Z" fill="#1B1C1E" />
    <path
        d="M90.3335 151.001L92.3651 144.629H91.3361L89.7795 149.708L88.1041 144.629H87.2598L85.5844 149.708L84.0277 144.629H82.9987L85.0303 151.001H86.0197L87.6819 145.882L89.3441 151.001H90.3335Z"
        fill="#1B1C1E" />
    <path
        d="M100.681 151.001L102.713 144.629H101.684L100.127 149.708L98.4517 144.629H97.6074L95.932 149.708L94.3753 144.629H93.3463L95.3779 151.001H96.3673L98.0295 145.882L99.6917 151.001H100.681Z"
        fill="#1B1C1E" />
    <path
        d="M111.029 151.001L113.06 144.629H112.031L110.475 149.708L108.799 144.629H107.955L106.28 149.708L104.723 144.629H103.694L105.726 151.001H106.715L108.377 145.882L110.039 151.001H111.029Z"
        fill="#1B1C1E" />
    <path
        d="M114.821 151.132C115.216 151.132 115.546 150.803 115.546 150.407C115.546 150.011 115.216 149.681 114.821 149.681C114.425 149.681 114.095 150.011 114.095 150.407C114.095 150.803 114.425 151.132 114.821 151.132Z"
        fill="#1B1C1E" />
    <path
        d="M120.011 151.159C121.66 151.159 122.518 150.301 122.518 149.233C122.518 146.753 118.573 147.676 118.573 146.278C118.573 145.71 119.114 145.275 119.985 145.275C120.803 145.275 121.502 145.618 121.885 146.08L122.346 145.394C121.832 144.879 121.067 144.47 119.985 144.47C118.468 144.47 117.61 145.315 117.61 146.304C117.61 148.666 121.555 147.716 121.555 149.259C121.555 149.892 121.027 150.354 120.051 150.354C119.18 150.354 118.375 149.932 117.953 149.444L117.439 150.156C118.085 150.842 118.969 151.159 120.011 151.159Z"
        fill="#1B1C1E" />
    <path
        d="M127.568 151.159C129.508 151.159 130.721 149.655 130.721 147.808C130.721 145.961 129.508 144.47 127.568 144.47C125.629 144.47 124.415 145.961 124.415 147.808C124.415 149.655 125.629 151.159 127.568 151.159ZM127.568 150.275C126.21 150.275 125.444 149.114 125.444 147.808C125.444 146.515 126.21 145.354 127.568 145.354C128.927 145.354 129.679 146.515 129.679 147.808C129.679 149.114 128.927 150.275 127.568 150.275Z"
        fill="#1B1C1E" />
    <path
        d="M135.804 151.159C136.965 151.159 137.651 150.684 138.139 150.051L137.479 149.444C137.057 150.011 136.516 150.275 135.857 150.275C134.498 150.275 133.653 149.22 133.653 147.808C133.653 146.396 134.498 145.354 135.857 145.354C136.516 145.354 137.057 145.605 137.479 146.185L138.139 145.579C137.651 144.945 136.965 144.47 135.804 144.47C133.904 144.47 132.624 145.922 132.624 147.808C132.624 149.708 133.904 151.159 135.804 151.159Z"
        fill="#1B1C1E" />
    <path
        d="M140.673 143.718C141.043 143.718 141.346 143.428 141.346 143.059C141.346 142.689 141.043 142.386 140.673 142.386C140.317 142.386 140.014 142.689 140.014 143.059C140.014 143.428 140.317 143.718 140.673 143.718ZM141.175 151.001V144.629H140.185V151.001H141.175Z"
        fill="#1B1C1E" />
    <path
        d="M148.781 151.001V146.621C148.781 145.077 147.66 144.47 146.314 144.47C145.272 144.47 144.454 144.813 143.768 145.526L144.23 146.212C144.797 145.605 145.417 145.328 146.182 145.328C147.106 145.328 147.792 145.816 147.792 146.673V147.821C147.277 147.228 146.552 146.951 145.681 146.951C144.599 146.951 143.452 147.623 143.452 149.048C143.452 150.433 144.599 151.159 145.681 151.159C146.539 151.159 147.264 150.855 147.792 150.275V151.001H148.781ZM146.037 150.446C145.114 150.446 144.467 149.866 144.467 149.061C144.467 148.243 145.114 147.663 146.037 147.663C146.737 147.663 147.409 147.927 147.792 148.454V149.655C147.409 150.183 146.737 150.446 146.037 150.446Z"
        fill="#1B1C1E" />
    <path d="M152.414 151.001V142.201H151.424V151.001H152.414Z" fill="#1B1C1E" />
    <path
        d="M158.187 151.159C159.862 151.159 161.023 149.866 161.023 147.808C161.023 145.737 159.862 144.47 158.187 144.47C157.29 144.47 156.498 144.932 156.036 145.579V144.629H155.047V153.428H156.036V150.038C156.551 150.75 157.316 151.159 158.187 151.159ZM157.936 150.275C157.158 150.275 156.379 149.8 156.036 149.246V146.37C156.379 145.816 157.158 145.354 157.936 145.354C159.216 145.354 159.981 146.396 159.981 147.808C159.981 149.22 159.216 150.275 157.936 150.275Z"
        fill="#1B1C1E" />
    <path
        d="M163.744 143.718C164.114 143.718 164.417 143.428 164.417 143.059C164.417 142.689 164.114 142.386 163.744 142.386C163.388 142.386 163.085 142.689 163.085 143.059C163.085 143.428 163.388 143.718 163.744 143.718ZM164.245 151.001V144.629H163.256V151.001H164.245Z"
        fill="#1B1C1E" />
    <path d="M167.868 151.001V142.201H166.879V151.001H167.868Z" fill="#1B1C1E" />
    <path
        d="M173.285 151.159C175.224 151.159 176.438 149.655 176.438 147.808C176.438 145.961 175.224 144.47 173.285 144.47C171.346 144.47 170.132 145.961 170.132 147.808C170.132 149.655 171.346 151.159 173.285 151.159ZM173.285 150.275C171.926 150.275 171.161 149.114 171.161 147.808C171.161 146.515 171.926 145.354 173.285 145.354C174.644 145.354 175.396 146.515 175.396 147.808C175.396 149.114 174.644 150.275 173.285 150.275Z"
        fill="#1B1C1E" />
    <path
        d="M180.32 151.159C180.9 151.159 181.257 150.987 181.507 150.75L181.217 150.011C181.085 150.156 180.821 150.275 180.544 150.275C180.109 150.275 179.898 149.932 179.898 149.457V145.499H181.191V144.629H179.898V142.887H178.908V144.629H177.853V145.499H178.908V149.668C178.908 150.618 179.383 151.159 180.32 151.159Z"
        fill="#1B1C1E" />
    <path
        d="M183.776 151.132C184.171 151.132 184.501 150.803 184.501 150.407C184.501 150.011 184.171 149.681 183.776 149.681C183.38 149.681 183.05 150.011 183.05 150.407C183.05 150.803 183.38 151.132 183.776 151.132Z"
        fill="#1B1C1E" />
    <path
        d="M189.668 151.159C190.829 151.159 191.514 150.684 192.003 150.051L191.343 149.444C190.921 150.011 190.38 150.275 189.72 150.275C188.362 150.275 187.517 149.22 187.517 147.808C187.517 146.396 188.362 145.354 189.72 145.354C190.38 145.354 190.921 145.605 191.343 146.185L192.003 145.579C191.514 144.945 190.829 144.47 189.668 144.47C187.768 144.47 186.488 145.922 186.488 147.808C186.488 149.708 187.768 151.159 189.668 151.159Z"
        fill="#1B1C1E" />
    <path
        d="M196.832 151.159C198.772 151.159 199.985 149.655 199.985 147.808C199.985 145.961 198.772 144.47 196.832 144.47C194.893 144.47 193.68 145.961 193.68 147.808C193.68 149.655 194.893 151.159 196.832 151.159ZM196.832 150.275C195.474 150.275 194.709 149.114 194.709 147.808C194.709 146.515 195.474 145.354 196.832 145.354C198.191 145.354 198.943 146.515 198.943 147.808C198.943 149.114 198.191 150.275 196.832 150.275Z"
        fill="#1B1C1E" />
    <path d="M202.047 151.264L205.173 141.938H204.395L201.269 151.264H202.047Z" fill="#1B1C1E" />
    <path
        d="M212.111 151.001V144.629H211.122V149.312C210.752 149.826 210.014 150.275 209.235 150.275C208.378 150.275 207.811 149.945 207.811 148.824V144.629H206.821V149.127C206.821 150.512 207.52 151.159 208.853 151.159C209.803 151.159 210.634 150.658 211.122 150.103V151.001H212.111Z"
        fill="#1B1C1E" />
    <path
        d="M215.736 151.001V146.489C216.026 145.974 216.857 145.473 217.464 145.473C217.623 145.473 217.741 145.486 217.86 145.513V144.497C216.989 144.497 216.251 144.985 215.736 145.658V144.629H214.747V151.001H215.736Z"
        fill="#1B1C1E" />
    <path d="M220.75 151.001V142.201H219.761V151.001H220.75Z" fill="#1B1C1E" />
    <path d="M225.956 148.243V147.373H222.79V148.243H225.956Z" fill="#1B1C1E" />
    <path
        d="M230.017 151.159C231.666 151.159 232.523 150.301 232.523 149.233C232.523 146.753 228.579 147.676 228.579 146.278C228.579 145.71 229.12 145.275 229.99 145.275C230.808 145.275 231.507 145.618 231.89 146.08L232.352 145.394C231.837 144.879 231.072 144.47 229.99 144.47C228.473 144.47 227.616 145.315 227.616 146.304C227.616 148.666 231.56 147.716 231.56 149.259C231.56 149.892 231.032 150.354 230.056 150.354C229.186 150.354 228.381 149.932 227.959 149.444L227.444 150.156C228.091 150.842 228.974 151.159 230.017 151.159Z"
        fill="#1B1C1E" />
    <path
        d="M240.093 151.001V146.502C240.093 145.117 239.394 144.47 238.062 144.47C237.099 144.47 236.228 145.024 235.78 145.552V142.201H234.79V151.001H235.78V146.344C236.162 145.829 236.901 145.354 237.666 145.354C238.523 145.354 239.104 145.684 239.104 146.805V151.001H240.093Z"
        fill="#1B1C1E" />
    <path
        d="M245.512 151.159C247.451 151.159 248.665 149.655 248.665 147.808C248.665 145.961 247.451 144.47 245.512 144.47C243.573 144.47 242.359 145.961 242.359 147.808C242.359 149.655 243.573 151.159 245.512 151.159ZM245.512 150.275C244.153 150.275 243.388 149.114 243.388 147.808C243.388 146.515 244.153 145.354 245.512 145.354C246.871 145.354 247.623 146.515 247.623 147.808C247.623 149.114 246.871 150.275 245.512 150.275Z"
        fill="#1B1C1E" />
    <path
        d="M251.927 151.001V146.489C252.217 145.974 253.048 145.473 253.655 145.473C253.814 145.473 253.932 145.486 254.051 145.513V144.497C253.18 144.497 252.442 144.985 251.927 145.658V144.629H250.938V151.001H251.927Z"
        fill="#1B1C1E" />
    <path
        d="M257.561 151.159C258.142 151.159 258.498 150.987 258.748 150.75L258.458 150.011C258.326 150.156 258.062 150.275 257.785 150.275C257.35 150.275 257.139 149.932 257.139 149.457V145.499H258.432V144.629H257.139V142.887H256.15V144.629H255.094V145.499H256.15V149.668C256.15 150.618 256.625 151.159 257.561 151.159Z"
        fill="#1B1C1E" />
    <path
        d="M263.365 151.159C264.407 151.159 265.265 150.816 265.898 150.183L265.423 149.536C264.922 150.051 264.183 150.341 263.457 150.341C262.085 150.341 261.241 149.338 261.162 148.138H266.32V147.887C266.32 145.974 265.186 144.47 263.259 144.47C261.439 144.47 260.12 145.961 260.12 147.808C260.12 149.8 261.479 151.159 263.365 151.159ZM265.344 147.412H261.162C261.215 146.436 261.887 145.288 263.246 145.288C264.697 145.288 265.331 146.462 265.344 147.412Z"
        fill="#1B1C1E" />
    <path
        d="M273.872 151.001V146.528C273.872 145.143 273.173 144.47 271.841 144.47C270.891 144.47 270.02 145.024 269.572 145.552V144.629H268.582V151.001H269.572V146.344C269.941 145.829 270.68 145.354 271.458 145.354C272.316 145.354 272.883 145.71 272.883 146.832V151.001H273.872Z"
        fill="#1B1C1E" />
    <path
        d="M279.384 151.159C280.426 151.159 281.283 150.816 281.917 150.183L281.442 149.536C280.94 150.051 280.202 150.341 279.476 150.341C278.104 150.341 277.26 149.338 277.181 148.138H282.339V147.887C282.339 145.974 281.204 144.47 279.278 144.47C277.458 144.47 276.138 145.961 276.138 147.808C276.138 149.8 277.497 151.159 279.384 151.159ZM281.363 147.412H277.181C277.233 146.436 277.906 145.288 279.265 145.288C280.716 145.288 281.349 146.462 281.363 147.412Z"
        fill="#1B1C1E" />
    <path
        d="M285.59 151.001V146.489C285.881 145.974 286.712 145.473 287.318 145.473C287.477 145.473 287.596 145.486 287.714 145.513V144.497C286.844 144.497 286.105 144.985 285.59 145.658V144.629H284.601V151.001H285.59Z"
        fill="#1B1C1E" />
    <path
        d="M291.633 151.159C293.282 151.159 294.14 150.301 294.14 149.233C294.14 146.753 290.195 147.676 290.195 146.278C290.195 145.71 290.736 145.275 291.607 145.275C292.425 145.275 293.124 145.618 293.507 146.08L293.968 145.394C293.454 144.879 292.689 144.47 291.607 144.47C290.09 144.47 289.232 145.315 289.232 146.304C289.232 148.666 293.177 147.716 293.177 149.259C293.177 149.892 292.649 150.354 291.673 150.354C290.802 150.354 289.998 149.932 289.575 149.444L289.061 150.156C289.707 150.842 290.591 151.159 291.633 151.159Z"
        fill="#1B1C1E" />
    <g style="mix-blend-mode:multiply">
        <path
            d="M28.0723 158.875C28.4888 161.358 30.6483 163.25 33.2497 163.25H339.5C342.399 163.25 344.75 160.899 344.75 158V136.125C344.75 133.226 342.399 130.875 339.5 130.875H339.427C339.475 131.16 339.5 131.452 339.5 131.75V153.625C339.5 156.524 337.149 158.875 334.25 158.875H28.0723Z"
            fill="#DBE8FC" />
    </g>
    <g style="mix-blend-mode:overlay">
        <path
            d="M31.0625 144.438V135.5C31.0625 134.395 31.9579 133.5 33.0625 133.5H50.75M53.375 133.5H55.5625"
            stroke="#DBE8FC" stroke-linecap="round" stroke-linejoin="round" />
    </g>
    <path fill-rule="evenodd" clip-rule="evenodd"
        d="M183.391 200.152C183.391 193.506 187.982 187.933 194.165 186.429L194.042 177.32L184.514 177.191C182.896 183.21 177.402 187.64 170.873 187.64C163.073 187.64 156.75 181.317 156.75 173.517C156.75 165.717 163.073 159.394 170.873 159.394C176.903 159.394 182.051 163.173 184.076 168.493L193.919 168.274L193.705 152.388C193.583 143.408 198.986 135.019 205.744 129.105L203.296 168.066L242.447 167.196C236.534 173.954 227.953 177.778 218.973 177.657L203.087 177.442L202.873 187.081C208.016 189.192 211.638 194.249 211.638 200.152C211.638 207.952 205.314 214.275 197.514 214.275C189.714 214.275 183.391 207.952 183.391 200.152ZM197.515 191.679C192.836 191.679 189.042 195.473 189.042 200.153C189.042 204.833 192.836 208.627 197.515 208.627C202.195 208.627 205.989 204.833 205.989 200.153C205.989 195.473 202.195 191.679 197.515 191.679ZM162.399 173.517C162.399 168.837 166.193 165.043 170.873 165.043C175.553 165.043 179.347 168.837 179.347 173.517C179.347 178.197 175.553 181.991 170.873 181.991C166.193 181.991 162.399 178.197 162.399 173.517Z"
        fill="#1B1C1E" stroke="#1B1C1E" />
    <path fill-rule="evenodd" clip-rule="evenodd"
        d="M185.141 200.152C185.141 193.506 189.732 187.933 195.915 186.429L195.792 177.32L186.264 177.191C184.646 183.21 179.152 187.64 172.623 187.64C164.823 187.64 158.5 181.317 158.5 173.517C158.5 165.717 164.823 159.394 172.623 159.394C178.653 159.394 183.801 163.173 185.826 168.493L195.669 168.274L195.455 152.388C195.333 143.408 199.157 134.828 205.916 128.914L205.046 168.066L244.197 167.196C238.284 173.954 229.703 177.778 220.723 177.657L204.837 177.442L204.623 187.081C209.766 189.192 213.388 194.249 213.388 200.152C213.388 207.952 207.064 214.275 199.264 214.275C191.464 214.275 185.141 207.952 185.141 200.152ZM199.265 191.679C194.586 191.679 190.792 195.473 190.792 200.153C190.792 204.833 194.586 208.627 199.265 208.627C203.945 208.627 207.739 204.833 207.739 200.153C207.739 195.473 203.945 191.679 199.265 191.679ZM164.149 173.517C164.149 168.837 167.943 165.043 172.623 165.043C177.303 165.043 181.097 168.837 181.097 173.517C181.097 178.197 177.303 181.991 172.623 181.991C167.943 181.991 164.149 178.197 164.149 173.517Z"
        fill="#FFDAA1" stroke="#1B1C1E" />
    <g style="mix-blend-mode:multiply">
        <path
            d="M187.939 208.585C190.483 211.06 193.957 212.584 197.786 212.584C205.586 212.584 211.909 206.261 211.909 198.461C211.909 195.299 210.87 192.38 209.115 190.026C211.753 192.592 213.391 196.18 213.391 200.15C213.391 207.95 207.068 214.273 199.268 214.273C194.63 214.273 190.514 212.038 187.939 208.585Z"
            fill="#FFDAA1" />
        <path
            d="M195.522 177.298L195.499 175.628L184.785 175.5C183.168 181.518 177.674 185.949 171.145 185.949C167.315 185.949 163.842 184.425 161.298 181.95C163.873 185.402 167.989 187.638 172.627 187.638C179.156 187.638 184.65 183.208 186.267 177.189L195.522 177.298Z"
            fill="#FFDAA1" />
        <path
            d="M182.474 163.391C183.247 164.427 183.881 165.573 184.348 166.801L185.047 166.786C184.363 165.526 183.493 164.382 182.474 163.391Z"
            fill="#FFDAA1" />
        <path
            d="M204.368 130.368L203.568 166.374L205.088 166.341L205.919 128.912C205.383 129.381 204.866 129.867 204.368 130.368Z"
            fill="#FFDAA1" />
        <path
            d="M241.053 167.264C235.252 172.922 227.413 176.076 219.245 175.965L203.359 175.751L203.145 185.39C203.662 185.602 204.164 185.844 204.648 186.114L204.841 177.44L220.727 177.655C229.706 177.776 238.287 173.952 244.201 167.194L241.053 167.264Z"
            fill="#FFDAA1" />
        <path
            d="M190.795 200.151C190.795 195.471 194.589 191.678 199.269 191.678C201.404 191.678 203.355 192.467 204.845 193.77C203.326 191.49 200.732 189.988 197.787 189.988C193.107 189.988 189.314 193.782 189.314 198.462C189.314 201.007 190.435 203.29 192.211 204.843C191.317 203.5 190.795 201.886 190.795 200.151Z"
            fill="#FFDAA1" />
        <path
            d="M172.627 165.041C167.947 165.041 164.153 168.835 164.153 173.515C164.153 175.25 164.674 176.863 165.569 178.207C163.793 176.653 162.671 174.371 162.671 171.826C162.671 167.146 166.465 163.352 171.145 163.352C174.09 163.352 176.684 164.854 178.203 167.134C176.712 165.831 174.762 165.041 172.627 165.041Z"
            fill="#FFDAA1" />
    </g>
    <path
        d="M205.916 128.916L204.844 177.485L195.758 177.283L195.443 152.39C195.329 143.409 199.157 134.83 205.916 128.916Z"
        fill="white" stroke="#1B1C1E" />
    <g style="mix-blend-mode:multiply">
        <path
            d="M204.846 177.483L205.918 128.914C204.73 129.954 203.633 131.075 202.631 132.267L201.635 177.411L204.846 177.483Z"
            fill="#FFF1DD" />
    </g>
    <path
        d="M244.199 167.197C220.799 167.717 219.058 167.777 195.658 168.297L195.86 177.282L220.726 177.644C229.704 177.774 238.286 173.955 244.199 167.197Z"
        fill="white" stroke="#1B1C1E" />
    <g style="mix-blend-mode:multiply">
        <path
            d="M236.942 167.359C239.12 167.31 241.518 167.257 244.199 167.197C238.287 173.955 229.704 177.774 220.726 177.644L216.129 177.577C224.107 177.036 231.594 173.386 236.942 167.359Z"
            fill="#FFF1DD" />
    </g>
    <ellipse cx="201.204" cy="173.146" rx="2.19594" ry="2.20058" fill="#FFDAA1" stroke="#1B1C1E" />
    <g style="mix-blend-mode:overlay">
        <path
            d="M199.683 173.198C199.683 172.624 199.988 172.122 200.445 171.846M201.256 171.621C201.227 171.621 201.199 171.622 201.17 171.623"
            stroke="#FFDAA1" stroke-linecap="round" />
    </g>
    <g style="mix-blend-mode:color-burn">
        <path
            d="M200.53 174.671C201.742 174.671 202.726 173.685 202.726 172.47C202.726 172.035 202.6 171.63 202.383 171.289C202.994 171.68 203.4 172.365 203.4 173.146C203.4 174.361 202.417 175.346 201.204 175.346C200.425 175.346 199.74 174.94 199.351 174.327C199.691 174.544 200.096 174.671 200.53 174.671Z"
            fill="#FFDAA1" />
    </g>
</svg>